<?xml version="1.0" encoding="utf-8"?>
<!-- Generator: Adobe Illustrator 15.0.0, SVG Export Plug-In . SVG Version: 6.00 Build 0)  -->
<!DOCTYPE svg PUBLIC "-//W3C//DTD SVG 1.1//EN" "http://www.w3.org/Graphics/SVG/1.1/DTD/svg11.dtd">
<svg version="1.1" id="Ebene_1" xmlns="http://www.w3.org/2000/svg" xmlns:xlink="http://www.w3.org/1999/xlink" x="0px" y="0px"
	 width="161px" height="161px" viewBox="0 0 161 161" enable-background="new 0 0 161 161" xml:space="preserve">
<circle fill="#FFFFFF" cx="80.5" cy="80.5" r="80.5"/>
<g>
	<path fill-rule="evenodd" clip-rule="evenodd" fill="#E2362B" d="M79.75,103.288c1.081-0.092,2.648,0.136,3.173,0
		c0.095-1.401-2.13-0.482-3.173-0.747C79.75,102.79,79.75,103.039,79.75,103.288 M79.191,82.385c-0.052,2.727,0.02,5.33,0.186,7.838
		c1.388-0.105,3.21,0.224,4.292-0.187c-0.141-2.58,0.419-5.413,0.188-7.465C82.096,82.715,80.863,82.331,79.191,82.385z
		 M79.191,78.093c-0.463,1.02-0.055,2.624,0,3.732c1.787-0.107,3.031,0.328,4.853,0.187c0-1.368,0-2.737,0-4.105
		C82.421,77.965,80.977,78.199,79.191,78.093z M103.266,79.772c-0.237-4.676-8.05-1.829-12.505-2.239
		c-0.306,1.622-0.702,3.154-0.933,4.852C94.651,82.04,103.53,84.982,103.266,79.772z M50.263,79.399
		c-0.771,7.326,13.264,8.833,17.917,4.106c0.722-0.733,0.634-1.733,1.679-2.239c1.325,0.106,2.592,0.271,4.106,0.187
		c0.046-1.012,0.299-1.816,0.187-2.986c-1.684-0.128-2.795,0.316-4.479,0.187C67.549,72.124,51.05,71.924,50.263,79.399z
		 M83.296,70.627c-0.215,3.145-2.289,4.429-4.292,5.786c0,0.374,0,0.747,0,1.12c1.878,0.136,3.275-0.209,5.04-0.187
		c-0.24-2.124,0.485-5.215-0.374-6.719C83.545,70.627,83.421,70.627,83.296,70.627z M79.937,59.99
		c0.526-0.096,1.577,0.333,1.307-0.56c-0.081-0.417-0.92-0.076-1.307-0.186C79.937,59.492,79.937,59.741,79.937,59.99z
		 M83.857,59.99c0.305,0.084,0.305-1.017,0-0.933C83.59,59.079,83.087,60.08,83.857,59.99z M76.578,59.803
		c0.67-0.155,0.902,0.42,1.306,0c0.204-0.888-0.607-0.761-1.306-0.747C76.578,59.306,76.578,59.554,76.578,59.803z M74.338,59.43
		c0.25-0.997-0.721-0.772-1.307-0.933C72.828,59.447,73.637,59.385,74.338,59.43z M75.645,49.912
		c-0.221,0.091-0.423,0.199-0.56,0.374c-0.21,3.598,0.021,6.097-0.187,10.825c-0.105,2.382,0.459,9.274-1.493,9.145
		c-1.761-0.117-0.971-2.889-0.933-3.919c0.16-4.352,0.186-11.167,0-15.677c-1.808,1.313-0.974,4.706-1.12,8.025
		c-0.335,7.641-1.882,15.801,3.733,16.983c-0.612,7.303-1.479,17.073-2.053,24.635c-0.358,4.721-1.903,11.524,2.986,11.385
		c4.128-0.119,3.178-4.95,2.986-9.519c-0.38-9.031-0.311-18.343-0.56-26.688c6.22-0.652,4.14-11.385,4.479-18.85
		c0.111-2.438,0.816-4.949-0.934-5.599c-0.056,3.486-0.172,7.322-0.373,10.638c-0.117,1.947,0.684,9.112-1.493,8.771
		c-1.55-0.243-0.806-4.056-0.747-5.412c0.148-3.352,0.187-7.802,0.187-11.571c0-1.259,0.419-2.733-0.373-3.359
		c-0.994,1.19-0.483,3.101-0.56,4.853c-0.17,3.861-0.419,8.229-0.56,11.571c-0.055,1.299,0.499,4.292-1.493,3.732
		c-1.297-0.684-0.747-2.607-0.747-3.919c0-5.335,0.75-11.924,0-16.424C75.769,49.912,75.707,49.912,75.645,49.912z M83.296,104.968
		c-0.245,4.001-0.412,7.465,3.173,7.465c5.132,0,3.118-8.426,2.8-13.624c-0.303-4.922-1.076-9.524-0.747-13.811
		c0.189-2.464,1.347-5.346,1.866-8.398c1.643-9.65,2.267-24.061-5.599-26.875c-0.218,0.031-0.203,0.295-0.187,0.56
		C85.017,68.129,84.343,87.904,83.296,104.968z M65.753,61.856c0.242,3.037,0.617,5.792,0.747,8.771
		c-4.733,0.119-9.947-0.242-14.371,0.187c-0.414,1.204-0.078,3.157-0.187,4.666c3.8-3.012,12.712-3.26,16.61,0.56
		c0.723,0.709,0.683,1.583,1.68,2.053c1.326-0.167,2.918-0.068,4.106-0.373c0-0.56,0-1.12,0-1.68
		c-2.056-1.055-3.766-2.456-3.919-5.413c-1.057,0-2.115,0-3.172,0c-0.434-4.792-0.846-9.605-1.12-14.557
		c1.174,0.832,3.222,2.729,4.666,2.053c-1.834-1.628-5.121-1.654-5.039-4.479c0.115-3.958,10.747-5.789,17.356-5.412
		c4.039,0.229,13.02,1.64,12.69,5.785c-0.197,2.496-3.188,2.333-4.479,4.106c1.596,0.411,3.251-1.723,4.292-1.866
		c-0.462,4.7-0.862,9.464-1.119,14.37c-0.934,0-1.866,0-2.8,0c-0.283,2.144-0.44,4.412-0.934,6.346
		c5.264,0.037,13.51-2.342,13.064,3.359c-0.416,5.333-9.163,2.238-14.184,2.613c-0.829,1.968-0.376,4.813-0.187,7.278
		c1.06,0.122,2.609-0.245,3.359,0.187c-0.368,5.542-0.762,11.059-1.307,16.424c-0.443-0.14-1.065-1.804-1.307-0.934
		c6.739,9.959-20.846,11.268-19.783,2.427c0.192-1.598,1.292-1.325,1.68-3.173c-0.763-0.443-1.509,1.718-2.054,1.493
		c-0.431-5.479-0.844-10.976-1.306-16.424c1.556,0,3.111,0,4.666,0c-0.087-2.834,0.605-5.852,0.373-8.212
		c-1.34-0.028-2.848,0.112-3.919-0.187c-1.999,5.668-13.251,6.39-17.916,2.613c0,1.866,0,3.732,0,5.599
		c5.041,0.434,10.885,0.063,16.237,0.187c1.046,6.085,0.396,13.63,1.493,19.223c1.517,7.734,20.616,7.179,22.208,0.374
		c1.333-5.694,0.386-13.558,1.68-19.597c5.911-0.123,12.316,0.247,17.917-0.187c0.313-5.977,0.308-13.246,0-19.223
		c-5.112-0.424-11.004-0.07-16.424-0.187c-0.03-6.29,1.889-12.012,1.493-17.356c-0.288-3.885-8.731-5.535-13.251-5.785
		c-2.047-0.113-4.355,0.05-5.972,0.187c-4.547,0.384-11.246,1.615-12.131,5.226 M78.631,41.514
		c18.312-1.179,30.886,9.567,36.953,21.835c2.262,4.574,3.728,9.39,3.919,15.49c0.386,12.298-4.241,21.546-10.638,28.368
		c-6.323,6.743-15.241,11.656-26.501,12.317c-11.516,0.677-21.932-4.34-28.555-10.451c-6.649-6.137-11.912-14.77-12.317-26.501
		c-0.65-18.792,8.979-30.695,21.462-36.952C67.502,43.34,72.629,41.9,78.631,41.514z"/>
	<path fill-rule="evenodd" clip-rule="evenodd" fill="#E2362B" d="M59.035,84.438c0.319-0.428,1.425-0.068,2.053-0.187
		C60.768,84.679,59.663,84.32,59.035,84.438"/>
	<path fill-rule="evenodd" clip-rule="evenodd" fill="#E2362B" d="M67.62,79.959c-0.267,2.409-2.813,4.153-5.972,4.292
		C64.439,83.621,66.848,82.609,67.62,79.959"/>
	<path fill="#E2362B" d="M68.366,79.586c-0.309,5.376-8.846,6.695-13.437,4.292c1.048-1.445,3.462-0.131,5.412-0.186
		c3.198-0.091,6.055-1.327,6.906-4.293C67.707,79.375,68.146,79.371,68.366,79.586"/>
	<polyline fill="#E2362B" points="23.12,77.164 23.276,75.376 20.304,75.117 23.465,73.219 23.662,70.969 20.041,73.33 
		17.023,70.603 16.839,72.705 19.666,75.061 16.656,74.797 16.5,76.584 23.12,77.164 	"/>
	<path fill="#E2362B" d="M17.38,68.741l2.753,0.636c0.263,0.06,0.507,0.117,0.743,0.171c1.014,0.234,1.786,0.364,2.494-0.016
		c0.641-0.338,1.07-1.041,1.323-2.136c0.475-2.056-0.177-3.074-2.134-3.526c-0.606-0.14-0.969-0.224-1.095-0.253l-2.753-0.636
		l-0.405,1.757l2.708,0.625c0.136,0.031,0.272,0.063,0.398,0.092c1.386,0.32,2.045,0.52,1.796,1.598
		c-0.211,0.915-0.757,1.008-1.907,0.742c-0.462-0.106-0.725-0.167-0.806-0.186l-2.708-0.625L17.38,68.741"/>
	<polyline fill="#E2362B" points="25.645,63.008 26.9,59.146 25.423,58.666 24.729,60.805 19.884,59.231 19.325,60.955 
		25.645,63.008 	"/>
	<polyline fill="#E2362B" points="27.394,58.161 28.109,56.476 21.992,53.879 21.277,55.564 27.394,58.161 	"/>
	<path fill="#E2362B" d="M28.765,54.913l0.873-1.513l-2.841-1.641c-0.306-0.177-0.703-0.363-1.186-0.566
		c0.766,0.066,1.203,0.072,1.308,0.058l4.225-0.458l0.869-1.505l-5.755-3.323l-0.869,1.505l2.841,1.64
		c0.306,0.177,0.703,0.363,1.186,0.567C28.65,49.61,28.205,49.6,28.1,49.614l-4.217,0.463l-0.874,1.513L28.765,54.913"/>
	<path fill-rule="evenodd" clip-rule="evenodd" fill="#E2362B" d="M32.056,44.967l-1.316-1.878c-0.063-0.085-0.247-0.334-0.56-0.732
		c0.462,0.208,0.742,0.333,0.84,0.374l2.146,0.815L32.056,44.967 M32.449,48.494l1.11-1.421l-0.726-1.003l1.585-2.029l1.144,0.469
		l1.11-1.421l-6.65-2.282l-1.396,1.787L32.449,48.494z"/>
	<path fill-rule="evenodd" clip-rule="evenodd" fill="#E2362B" d="M37.343,42.512l1.203-1.203l-1.84-1.84l2.918,0.762l1.446-1.446
		l-3.174-0.611c0.539-0.829,0.44-1.663-0.29-2.393c-0.486-0.486-1.071-0.703-1.676-0.625c-0.71,0.092-1.216,0.585-1.866,1.236
		c-0.027,0.026-0.053,0.053-0.079,0.079l-1.341,1.341L37.343,42.512 M36.068,38.831l-1.236-1.235l0.256-0.256
		c0.532-0.532,0.933-0.618,1.426-0.125c0.414,0.414,0.329,0.841-0.21,1.38L36.068,38.831z"/>
	<polyline fill="#E2362B" points="41.788,38.251 43.19,37.075 38.918,31.984 37.516,33.161 41.788,38.251 	"/>
	<path fill="#E2362B" d="M43.392,34.137l0.13,1.571c0.978,0.128,1.724-0.046,2.483-0.599c1.263-0.917,1.498-2.271,0.684-3.392
		c-0.721-0.993-1.504-0.963-2.645-0.525c-0.582,0.227-1.01,0.412-1.289,0.028c-0.186-0.255-0.095-0.621,0.266-0.882
		c0.331-0.241,0.796-0.36,1.342-0.32l-0.306-1.386c-0.701,0.016-1.342,0.24-1.944,0.677c-1.128,0.82-1.317,2.094-0.59,3.094
		c0.612,0.842,1.37,0.889,2.525,0.44c0.724-0.285,1.11-0.37,1.421,0.059c0.229,0.316,0.141,0.748-0.265,1.042
		C44.776,34.256,44.175,34.314,43.392,34.137"/>
	<path fill="#E2362B" d="M49.979,24.916c-0.639,0.047-1.183,0.2-1.698,0.498c-1.698,0.98-2.183,2.967-1.179,4.705
		c1.003,1.739,2.966,2.313,4.664,1.332c0.516-0.298,0.92-0.692,1.28-1.222l-0.99-1.714c-0.148,0.708-0.421,1.166-0.928,1.459
		c-0.917,0.53-1.927,0.157-2.438-0.728c-0.563-0.974-0.358-2.015,0.551-2.54c0.507-0.292,1.04-0.3,1.728-0.074L49.979,24.916"/>
	<polyline fill="#E2362B" points="54.229,29.832 55.885,29.095 54.785,26.624 56.993,25.641 58.093,28.112 59.749,27.375 
		57.045,21.304 55.39,22.041 56.441,24.401 54.233,25.384 53.182,23.024 51.527,23.761 54.229,29.832 	"/>
	<polyline fill="#E2362B" points="61.304,26.849 65.197,25.659 64.762,24.236 62.558,24.91 62.229,23.835 64.309,23.199 
		63.893,21.839 61.813,22.475 61.477,21.373 63.681,20.699 63.254,19.304 59.361,20.494 61.304,26.849 	"/>
	<path fill="#E2362B" d="M66.356,23.138l-0.52,1.489c0.841,0.515,1.594,0.659,2.512,0.463c1.527-0.325,2.292-1.466,2.004-2.82
		c-0.255-1.2-0.982-1.492-2.203-1.556c-0.624-0.029-1.091-0.034-1.189-0.498c-0.065-0.309,0.166-0.605,0.603-0.698
		c0.4-0.085,0.873-0.005,1.355,0.254l0.284-1.391c-0.646-0.271-1.324-0.327-2.051-0.172c-1.364,0.29-2.055,1.377-1.797,2.586
		c0.216,1.018,0.89,1.369,2.128,1.429c0.777,0.035,1.165,0.114,1.275,0.632c0.081,0.382-0.175,0.741-0.666,0.845
		C67.573,23.811,67,23.619,66.356,23.138"/>
	<polyline fill="#E2362B" points="74.923,23.859 78.978,23.504 78.849,22.022 76.552,22.223 76.455,21.103 78.621,20.914 
		78.497,19.497 76.331,19.686 76.23,18.539 78.526,18.337 78.399,16.884 74.344,17.239 74.923,23.859 	"/>
	<path fill-rule="evenodd" clip-rule="evenodd" fill="#E2362B" d="M80.35,23.498h1.701v-2.603l1.524,2.603h2.045l-1.813-2.677
		c0.967-0.205,1.486-0.864,1.486-1.896c0-0.688-0.26-1.255-0.743-1.626c-0.566-0.437-1.273-0.446-2.193-0.446
		c-0.037,0-0.074,0-0.111,0H80.35V23.498 M82.051,19.994v-1.748h0.362c0.753,0,1.097,0.223,1.097,0.92
		c0,0.585-0.362,0.827-1.124,0.827H82.051z"/>
	<path fill-rule="evenodd" clip-rule="evenodd" fill="#E2362B" d="M88.686,19.891l0.162-1.328l0.388,0.047
		c0.729,0.09,1.125,0.223,1.052,0.813c-0.066,0.544-0.486,0.605-1.242,0.512L88.686,19.891 M86.53,23.644l1.863,0.229
		c1.08,0.133,1.866,0.21,2.495-0.031c0.59-0.227,0.962-0.743,1.048-1.444c0.12-0.978-0.357-1.664-1.289-1.853
		c0.867-0.128,1.277-0.49,1.37-1.246c0.08-0.655-0.182-1.192-0.758-1.535c-0.471-0.282-1.105-0.37-1.918-0.469
		c-0.064-0.008-0.129-0.016-0.193-0.024l-1.809-0.222L86.53,23.644z M88.365,22.501l0.177-1.439l0.655,0.081
		c0.774,0.095,1.129,0.26,1.052,0.887c-0.066,0.544-0.49,0.642-1.257,0.548L88.365,22.501z"/>
	<polyline fill="#E2362B" points="92.969,24.579 96.936,25.494 97.27,24.045 95.024,23.527 95.277,22.431 97.396,22.92 
		97.716,21.535 95.597,21.045 95.856,19.922 98.102,20.441 98.43,19.02 94.463,18.104 92.969,24.579 	"/>
	<path fill-rule="evenodd" clip-rule="evenodd" fill="#E2362B" d="M101.18,26.871l1.266,0.563c0.144,0.064,0.288,0.128,0.424,0.189
		c1.011,0.45,1.866,0.79,2.86,0.592c1.006-0.203,1.787-0.862,2.268-1.94c0.484-1.087,0.45-2.109-0.075-2.984
		c-0.549-0.916-1.45-1.337-2.579-1.84c-0.067-0.03-0.127-0.057-0.195-0.087l-1.265-0.563L101.18,26.871 M103.423,26.242l1.494-3.354
		l0.279,0.125c1.248,0.556,1.656,1.307,1.119,2.513c-0.528,1.188-1.347,1.404-2.612,0.841L103.423,26.242z"/>
	<polyline fill="#E2362B" points="107.847,29.976 111.336,32.072 112.103,30.798 110.126,29.61 110.707,28.646 112.57,29.767 
		113.302,28.548 111.439,27.428 112.032,26.439 114.007,27.627 114.759,26.376 111.27,24.279 107.847,29.976 	"/>
	<path fill-rule="evenodd" clip-rule="evenodd" fill="#E2362B" d="M112.526,32.792l1.358,1.023l1.566-2.078l-0.35,2.996l1.633,1.23
		l0.164-3.229c0.895,0.418,1.707,0.205,2.328-0.619c0.414-0.549,0.548-1.159,0.386-1.747c-0.19-0.69-0.749-1.122-1.483-1.676
		c-0.03-0.022-0.06-0.045-0.089-0.067l-1.515-1.141L112.526,32.792 M115.993,31.018l1.052-1.396l0.289,0.218
		c0.602,0.453,0.742,0.838,0.322,1.395c-0.353,0.468-0.787,0.442-1.396-0.016L115.993,31.018z"/>
	<path fill="#E2362B" d="M121.32,37.264l-1.531,0.375c0.026,0.986,0.315,1.696,0.979,2.359c1.104,1.104,2.478,1.124,3.457,0.145
		c0.868-0.868,0.716-1.636,0.104-2.694c-0.315-0.539-0.564-0.934-0.229-1.269c0.224-0.224,0.598-0.19,0.913,0.125
		c0.29,0.289,0.48,0.729,0.526,1.275l1.32-0.52c-0.124-0.69-0.446-1.288-0.972-1.814c-0.986-0.986-2.274-0.973-3.148-0.099
		c-0.736,0.736-0.664,1.492-0.039,2.563c0.395,0.67,0.538,1.039,0.164,1.413c-0.276,0.276-0.717,0.256-1.071-0.099
		C121.418,38.651,121.267,38.066,121.32,37.264"/>
	<path fill="#E2362B" d="M131.435,42.344c-0.146-0.623-0.383-1.137-0.757-1.599c-1.234-1.524-3.271-1.692-4.832-0.429
		c-1.561,1.263-1.819,3.291-0.586,4.815c0.375,0.462,0.828,0.8,1.407,1.073l1.539-1.246c-0.724-0.036-1.218-0.233-1.587-0.688
		c-0.666-0.823-0.456-1.878,0.338-2.522c0.874-0.708,1.934-0.669,2.595,0.147c0.369,0.455,0.459,0.98,0.344,1.695L131.435,42.344"/>
	<polyline fill="#E2362B" points="127.188,47.366 128.175,48.886 130.444,47.413 131.76,49.439 129.492,50.913 130.478,52.433 
		136.052,48.813 135.065,47.293 132.898,48.701 131.582,46.674 133.749,45.267 132.762,43.747 127.188,47.366 	"/>
	<path fill="#E2362B" d="M139.22,55.205l-0.617-1.322l-3.233,0.585c-0.322,0.058-0.661,0.123-1,0.209
		c0.271-0.188,0.547-0.388,0.815-0.605l2.559-2.034l-0.774-1.66l-5.229,4.51l0.71,1.525l2.911-0.465
		c0.259-0.039,0.557-0.105,0.903-0.175c-0.345,0.273-0.582,0.467-0.715,0.58l-2.224,1.939l0.712,1.525l6.815-1.107l-0.773-1.66
		l-3.194,0.628c-0.233,0.048-0.557,0.126-0.971,0.227c0.038-0.028,0.322-0.211,0.794-0.606L139.22,55.205"/>
	<polyline fill="#E2362B" points="134.966,62.411 136.157,66.304 137.579,65.869 136.905,63.665 137.981,63.336 138.617,65.415 
		139.976,65 139.34,62.92 140.443,62.583 141.116,64.787 142.511,64.36 141.322,60.468 134.966,62.411 	"/>
	<polyline fill="#E2362B" points="136.491,67.671 136.872,69.462 143.372,68.081 142.991,66.29 136.491,67.671 	"/>
	<polyline fill="#E2362B" points="137.858,76.201 139.297,76.024 138.936,73.082 144.5,75.77 143.818,70.215 142.388,70.392 
		142.716,73.066 137.142,70.37 137.858,76.201 	"/>
	<path fill-rule="evenodd" clip-rule="evenodd" fill="#E2362B" d="M17.757,88.148l2.181-0.229l0.034,0.324
		c0.016,0.147,0.031,0.296,0.046,0.434c0.065,0.62,0.146,1.125,0.462,1.55c0.414,0.555,1.104,0.81,1.982,0.717
		c0.85-0.089,1.498-0.503,1.807-1.124c0.278-0.553,0.219-1.21,0.131-2.042c-0.003-0.037-0.008-0.083-0.013-0.129l-0.198-1.886
		l-6.609,0.694L17.757,88.148 M21.39,87.767l1.553-0.163l0.038,0.36c0.077,0.73-0.009,1.16-0.647,1.227
		c-0.638,0.067-0.827-0.314-0.908-1.081L21.39,87.767z"/>
	<path fill-rule="evenodd" clip-rule="evenodd" fill="#E2362B" d="M21.064,93.816l2.284,0.199c0.106,0.006,0.415,0.025,0.921,0.042
		c-0.457,0.22-0.732,0.354-0.826,0.403l-2.005,1.12L21.064,93.816 M18.109,91.851l0.375,1.764l1.235,0.089l0.535,2.519l-1.094,0.574
		l0.375,1.765l6.023-3.627l-0.471-2.219L18.109,91.851z"/>
	<polyline fill="#E2362B" points="20.219,100.429 20.78,102.152 25.605,100.584 26.065,101.998 27.559,101.513 26.083,96.97 
		24.589,97.455 25.046,98.86 20.219,100.429 	"/>
	<path fill-rule="evenodd" clip-rule="evenodd" fill="#E2362B" d="M21.9,105.25l0.719,1.541l2.358-1.1l-1.714,2.481l0.864,1.854
		l1.66-2.774c0.594,0.79,1.412,0.982,2.347,0.547c0.623-0.29,1.027-0.766,1.16-1.361c0.156-0.698-0.134-1.343-0.523-2.177
		c-0.016-0.033-0.031-0.067-0.047-0.101l-0.801-1.719L21.9,105.25 M25.795,105.311l1.583-0.738l0.153,0.328
		c0.318,0.683,0.261,1.089-0.371,1.383c-0.531,0.248-0.903,0.021-1.225-0.67L25.795,105.311z"/>
	<polyline fill="#E2362B" points="24.814,111.221 25.73,112.807 31.485,109.483 30.57,107.898 24.814,111.221 	"/>
	<path fill="#E2362B" d="M31.303,120.938l4.775-4.732l-1.054-1.451l-3.363,1.19c-0.239,0.082-0.529,0.188-0.857,0.37
		c0.291-0.28,0.469-0.524,0.604-0.703l2.185-2.828l-1.055-1.451l-5.977,3.079l0.989,1.361l2.553-1.372
		c0.356-0.19,0.788-0.435,1.291-0.754c-0.419,0.419-0.661,0.767-0.827,0.979l-1.989,2.56l0.71,0.978l3.049-1.101
		c0.254-0.093,0.66-0.215,1.188-0.483c-0.459,0.379-0.83,0.706-1.121,0.986l-2.094,2.004L31.303,120.938"/>
	<path fill-rule="evenodd" clip-rule="evenodd" fill="#E2362B" d="M39.918,125.017c0.664-0.664,1.025-1.524,1.012-2.472
		c-0.014-0.933-0.401-1.847-1.059-2.504c-0.657-0.657-1.563-1.038-2.497-1.051c-0.946-0.014-1.807,0.335-2.478,1.005
		c-0.756,0.756-1.104,1.748-0.986,2.813c0.092,0.815,0.46,1.591,1.032,2.163c0.657,0.657,1.558,1.045,2.504,1.058
		C38.38,126.042,39.248,125.687,39.918,125.017 M36.027,123.886c-0.749-0.749-0.624-1.834,0.151-2.609
		c0.769-0.769,1.887-0.873,2.609-0.15c0.716,0.716,0.611,1.847-0.151,2.609C37.867,124.504,36.757,124.615,36.027,123.886z"/>
	<path fill="#E2362B" d="M39.092,128.731l1.377,1.076l2.02-2.586c0.217-0.278,0.457-0.646,0.726-1.095
		c-0.173,0.749-0.239,1.181-0.239,1.287l-0.134,4.247l1.37,1.07l4.091-5.236l-1.369-1.07l-2.02,2.585
		c-0.217,0.278-0.457,0.646-0.726,1.096c0.172-0.749,0.245-1.188,0.245-1.295l0.128-4.239l-1.377-1.076L39.092,128.731"/>
	<polyline fill="#E2362B" points="46.148,133.888 47.701,134.858 51.223,129.223 49.67,128.252 46.148,133.888 	"/>
	<path fill-rule="evenodd" clip-rule="evenodd" fill="#E2362B" d="M57.184,136.072c0.412-0.844,0.473-1.775,0.152-2.666
		c-0.316-0.878-0.98-1.615-1.815-2.023c-0.835-0.407-1.817-0.472-2.704-0.181c-0.899,0.295-1.6,0.905-2.015,1.757
		c-0.469,0.961-0.475,2.013-0.017,2.98c0.352,0.741,0.953,1.354,1.679,1.709c0.836,0.407,1.813,0.481,2.712,0.185
		C56.063,137.542,56.768,136.924,57.184,136.072 M53.137,136.271c-0.952-0.465-1.187-1.531-0.707-2.517
		c0.477-0.978,1.499-1.44,2.418-0.992c0.911,0.444,1.179,1.547,0.707,2.516C55.078,136.255,54.064,136.723,53.137,136.271z"/>
	<path fill="#E2362B" d="M67.116,136.121c-0.477-0.427-0.965-0.712-1.538-0.876c-1.885-0.54-3.65,0.491-4.203,2.421
		c-0.554,1.93,0.397,3.739,2.282,4.279c0.572,0.164,1.138,0.182,1.769,0.072l0.545-1.903c-0.613,0.385-1.131,0.508-1.694,0.346
		c-1.019-0.292-1.452-1.276-1.17-2.259c0.31-1.082,1.2-1.657,2.21-1.368c0.563,0.161,0.938,0.54,1.254,1.191L67.116,136.121"/>
	<path fill="#E2362B" d="M68.242,136.198l-0.442,2.791c-0.042,0.267-0.081,0.514-0.119,0.753c-0.163,1.028-0.239,1.806,0.189,2.485
		c0.382,0.616,1.113,0.995,2.224,1.171c2.084,0.33,3.054-0.391,3.369-2.374c0.097-0.614,0.155-0.981,0.176-1.11l0.442-2.791
		l-1.781-0.281l-0.435,2.744c-0.022,0.138-0.043,0.275-0.064,0.404c-0.223,1.404-0.376,2.076-1.468,1.903
		c-0.927-0.147-1.059-0.686-0.874-1.851c0.074-0.469,0.116-0.735,0.13-0.817l0.435-2.745L68.242,136.198"/>
	<polyline fill="#E2362B" points="75.183,143.934 79.239,144.146 79.32,142.597 77.074,142.479 77.34,137.393 75.53,137.298 
		75.183,143.934 	"/>
	<polyline fill="#E2362B" points="80.688,144.116 82.519,144.084 82.403,137.44 80.573,137.473 80.688,144.116 	"/>
	<path fill="#E2362B" d="M84.761,144.026l1.734-0.213l-0.399-3.256c-0.043-0.352-0.134-0.78-0.262-1.289
		c0.408,0.652,0.667,1.005,0.741,1.08l2.909,3.098l1.725-0.211l-0.81-6.597l-1.726,0.212l0.4,3.257
		c0.043,0.35,0.133,0.779,0.261,1.288c-0.407-0.652-0.667-1.014-0.742-1.089l-2.907-3.089l-1.734,0.213L84.761,144.026"/>
	<path fill-rule="evenodd" clip-rule="evenodd" fill="#E2362B" d="M94.597,139.919l0.118-2.29c0.002-0.106,0.012-0.415,0.01-0.922
		c0.236,0.448,0.38,0.719,0.432,0.812l1.189,1.964L94.597,139.919 M92.735,142.94l1.75-0.437l0.046-1.237l2.498-0.623l0.612,1.073
		l1.749-0.436l-3.835-5.893l-2.2,0.549L92.735,142.94z"/>
	<path fill-rule="evenodd" clip-rule="evenodd" fill="#E2362B" d="M100.834,140.706l1.588-0.609l-0.933-2.429l2.355,1.883
		l1.908-0.732l-2.65-1.85c0.829-0.537,1.078-1.34,0.708-2.304c-0.246-0.642-0.692-1.077-1.276-1.251
		c-0.686-0.205-1.349,0.039-2.208,0.369c-0.034,0.014-0.069,0.026-0.104,0.04l-1.771,0.68L100.834,140.706 M101.167,136.826
		l-0.627-1.632l0.339-0.13c0.703-0.27,1.104-0.185,1.354,0.467c0.21,0.546-0.042,0.901-0.753,1.175L101.167,136.826z"/>
	<polyline fill="#E2362B" points="106.996,138.186 108.641,137.383 105.728,131.41 104.082,132.213 106.996,138.186 	"/>
	<path fill-rule="evenodd" clip-rule="evenodd" fill="#E2362B" d="M114.692,130.006c-0.498-0.797-1.256-1.343-2.181-1.542
		c-0.912-0.197-1.89-0.025-2.678,0.467c-0.788,0.493-1.363,1.291-1.586,2.197c-0.227,0.919-0.08,1.837,0.422,2.641
		c0.566,0.906,1.455,1.469,2.519,1.593c0.815,0.094,1.653-0.09,2.34-0.519c0.788-0.492,1.368-1.283,1.594-2.202
		C115.344,131.734,115.194,130.81,114.692,130.006 M112.715,133.542c-0.899,0.562-1.928,0.196-2.509-0.734
		c-0.576-0.922-0.428-2.034,0.439-2.576c0.859-0.536,1.937-0.18,2.509,0.734C113.731,131.888,113.589,132.995,112.715,133.542z"/>
	<path fill="#E2362B" d="M119.445,127.72l0.294,1.549c0.985,0.025,1.709-0.227,2.407-0.854c1.16-1.044,1.252-2.415,0.325-3.444
		c-0.821-0.912-1.597-0.801-2.686-0.246c-0.555,0.287-0.962,0.516-1.278,0.164c-0.212-0.235-0.159-0.607,0.172-0.906
		c0.304-0.273,0.754-0.441,1.301-0.458l-0.449-1.347c-0.695,0.089-1.31,0.379-1.862,0.876c-1.036,0.934-1.09,2.221-0.263,3.139
		c0.696,0.773,1.455,0.741,2.557,0.174c0.69-0.359,1.065-0.483,1.42-0.091c0.262,0.291,0.219,0.729-0.154,1.065
		C120.834,127.694,120.243,127.814,119.445,127.72"/>
	<path fill="#E2362B" d="M126.492,123.931l0.92-1.022l-3.072-6.519l-1.288,1.43l1.88,3.469c0.036,0.07,0.201,0.331,0.508,0.77
		c-0.468-0.259-0.738-0.402-0.813-0.432l-3.652-1.5l-1.287,1.43L126.492,123.931"/>
	<polyline fill="#E2362B" points="130.017,119.853 131.12,118.39 125.812,114.391 124.71,115.854 130.017,119.853 	"/>
	<polyline fill="#E2362B" points="135.151,112.47 133.934,111.681 132.32,114.167 129.785,108.531 126.737,113.224 127.946,114.009 
		129.414,111.748 131.952,117.396 135.151,112.47 	"/>
	<polyline fill="#E2362B" points="138.407,106.042 137.104,105.406 135.804,108.071 132.601,102.786 130.149,107.814 
		131.444,108.446 132.625,106.023 135.832,111.321 138.407,106.042 	"/>
	<polyline fill="#E2362B" points="139.108,104.292 140.5,100.467 139.103,99.958 138.315,102.123 137.258,101.739 138.001,99.695 
		136.666,99.209 135.921,101.253 134.839,100.858 135.627,98.692 134.256,98.193 132.864,102.019 139.108,104.292 	"/>
	<path fill-rule="evenodd" clip-rule="evenodd" fill="#E2362B" d="M141.078,98.574l0.412-1.65l-2.525-0.63l2.894-0.85l0.495-1.983
		l-3.035,1.111c0.035-0.987-0.479-1.652-1.48-1.902c-0.667-0.166-1.28-0.051-1.758,0.328c-0.562,0.444-0.741,1.128-0.964,2.021
		c-0.009,0.036-0.019,0.072-0.027,0.108l-0.458,1.84L141.078,98.574 M138.089,96.076l-1.695-0.423l0.088-0.352
		c0.183-0.73,0.482-1.01,1.158-0.842c0.568,0.143,0.715,0.552,0.53,1.292L138.089,96.076z"/>
	<path fill-rule="evenodd" clip-rule="evenodd" fill="#E2362B" d="M140.21,84.712c-0.932-0.114-1.833,0.131-2.57,0.724
		c-0.728,0.585-1.209,1.453-1.322,2.375c-0.113,0.923,0.145,1.872,0.71,2.616c0.571,0.753,1.376,1.217,2.317,1.333
		c1.061,0.13,2.058-0.206,2.823-0.955c0.586-0.574,0.97-1.342,1.068-2.145c0.113-0.922-0.135-1.87-0.708-2.624
		C141.965,85.292,141.151,84.827,140.21,84.712 M141.714,88.474c-0.128,1.052-1.06,1.621-2.148,1.487
		c-1.079-0.133-1.851-0.948-1.726-1.963c0.123-1.006,1.079-1.619,2.149-1.487C141.069,86.644,141.84,87.45,141.714,88.474z"/>
	<path fill-rule="evenodd" clip-rule="evenodd" fill="#E2362B" d="M34.336,74.2l-1.938-0.272l0.041-0.288
		c0.018-0.131,0.037-0.263,0.054-0.386c0.077-0.55,0.116-1.006-0.065-1.442c-0.238-0.569-0.781-0.939-1.562-1.048
		c-0.755-0.106-1.406,0.112-1.807,0.583c-0.361,0.418-0.451,1-0.555,1.74c-0.004,0.033-0.011,0.074-0.016,0.115l-0.235,1.676
		l5.873,0.826L34.336,74.2 M31.108,73.746l-1.38-0.194l0.045-0.32c0.091-0.649,0.258-1.002,0.825-0.923
		c0.566,0.08,0.648,0.452,0.553,1.133L31.108,73.746z"/>
	<path fill-rule="evenodd" clip-rule="evenodd" fill="#E2362B" d="M33.075,68.68l-1.755-1.053c-0.083-0.046-0.322-0.183-0.723-0.394
		c0.453,0.001,0.726,0.001,0.821-0.001l2.046-0.114L33.075,68.68 M34.676,71.414l0.389-1.562l-0.956-0.555l0.556-2.229l1.103-0.033
		l0.389-1.562l-6.25,0.553l-0.49,1.964L34.676,71.414z"/>
	<polyline fill="#E2362B" points="36.698,64.3 37.278,62.791 33.049,61.167 33.525,59.928 32.216,59.425 30.688,63.406 
		31.997,63.908 32.47,62.677 36.698,64.3 	"/>
	<path fill-rule="evenodd" clip-rule="evenodd" fill="#E2362B" d="M38.146,60.669l0.689-1.353l-2.07-1.055l2.687-0.158l0.829-1.626
		l-2.863,0.357c0.229-0.852-0.085-1.533-0.905-1.951c-0.547-0.279-1.104-0.301-1.595-0.068c-0.578,0.274-0.871,0.832-1.244,1.563
		c-0.015,0.03-0.03,0.06-0.045,0.089l-0.768,1.508L38.146,60.669 M36.048,57.896l-1.39-0.708l0.147-0.288
		c0.305-0.599,0.622-0.782,1.176-0.5c0.465,0.237,0.511,0.624,0.202,1.229L36.048,57.896z"/>
	<polyline fill="#E2362B" points="40.838,55.836 41.728,54.465 36.754,51.235 35.864,52.605 40.838,55.836 	"/>
	<path fill="#E2362B" d="M47.024,48.045l-5.075-3.202l-1.05,1.208l1.71,2.685c0.119,0.191,0.271,0.422,0.494,0.671
		c-0.302-0.197-0.55-0.303-0.732-0.384l-2.898-1.332l-1.05,1.208l3.877,4.58l0.985-1.133l-1.706-1.945
		c-0.236-0.271-0.536-0.597-0.915-0.971c0.449,0.28,0.8,0.42,1.019,0.522l2.625,1.216l0.708-0.813l-1.57-2.431
		c-0.131-0.203-0.319-0.53-0.659-0.936c0.422,0.323,0.782,0.58,1.083,0.777l2.163,1.418L47.024,48.045"/>
	<path fill-rule="evenodd" clip-rule="evenodd" fill="#E2362B" d="M50.768,41.141c-0.527-0.651-1.257-1.052-2.099-1.129
		c-0.83-0.075-1.676,0.184-2.321,0.706c-0.645,0.522-1.068,1.292-1.167,2.119c-0.1,0.839,0.129,1.635,0.662,2.293
		c0.6,0.741,1.449,1.143,2.405,1.138c0.732-0.006,1.454-0.26,2.015-0.714c0.645-0.522,1.073-1.285,1.173-2.124
		C51.535,42.601,51.3,41.798,50.768,41.141 M49.401,44.489c-0.735,0.595-1.686,0.383-2.302-0.378c-0.611-0.754-0.6-1.755,0.109-2.33
		c0.703-0.569,1.696-0.37,2.302,0.377C50.122,42.913,50.117,43.909,49.401,44.489z"/>
	<polyline fill="#E2362B" points="53.677,42.772 55.047,41.882 51.817,36.908 50.446,37.798 53.677,42.772 	"/>
	<path fill="#E2362B" d="M56.252,41.076l1.377-0.732l-1.375-2.585c-0.148-0.279-0.36-0.607-0.629-0.99
		c0.548,0.413,0.876,0.624,0.962,0.662l3.415,1.651l1.37-0.728l-2.785-5.237l-1.37,0.729l1.375,2.585
		c0.148,0.278,0.36,0.607,0.63,0.99c-0.548-0.413-0.88-0.631-0.967-0.669l-3.411-1.644l-1.377,0.732L56.252,41.076"/>
	<polyline fill="#E2362B" points="62.794,37.838 66.208,36.596 65.755,35.348 63.822,36.052 63.478,35.109 65.302,34.445 
		64.868,33.252 63.044,33.916 62.692,32.95 64.625,32.246 64.18,31.022 60.766,32.265 62.794,37.838 	"/>
	<path fill="#E2362B" d="M73.267,29.228c-0.549-0.156-1.053-0.193-1.576-0.102c-1.724,0.304-2.737,1.822-2.425,3.586
		c0.311,1.765,1.782,2.845,3.505,2.541c0.523-0.092,0.983-0.3,1.447-0.635l-0.307-1.74c-0.341,0.548-0.709,0.849-1.224,0.94
		c-0.932,0.164-1.664-0.457-1.823-1.355c-0.174-0.989,0.314-1.799,1.238-1.962c0.514-0.091,0.963,0.066,1.472,0.465L73.267,29.228"
		/>
	<path fill="#E2362B" d="M74.895,28.753l0.176,2.516c0.017,0.24,0.033,0.463,0.048,0.678c0.065,0.927,0.154,1.619,0.664,2.124
		c0.456,0.459,1.167,0.642,2.168,0.572c1.878-0.131,2.578-0.954,2.453-2.741c-0.039-0.554-0.062-0.886-0.07-1.001l-0.176-2.516
		l-1.605,0.112l0.173,2.474c0.009,0.124,0.018,0.249,0.025,0.364c0.089,1.266,0.09,1.881-0.895,1.95
		c-0.836,0.058-1.058-0.383-1.131-1.434c-0.03-0.422-0.046-0.662-0.052-0.737L76.5,28.641L74.895,28.753"/>
	<polyline fill="#E2362B" points="82.009,34.336 85.629,34.526 85.703,33.143 83.698,33.038 83.935,28.498 82.32,28.414 
		82.009,34.336 	"/>
	<polyline fill="#E2362B" points="86.573,34.618 88.195,34.816 88.917,28.93 87.295,28.73 86.573,34.618 	"/>
	<path fill="#E2362B" d="M89.708,34.938l1.513,0.377l0.709-2.841c0.076-0.306,0.138-0.692,0.194-1.157
		c0.131,0.674,0.234,1.05,0.272,1.137l1.433,3.512l1.505,0.375l1.435-5.755l-1.505-0.375l-0.709,2.841
		c-0.076,0.306-0.138,0.692-0.194,1.157c-0.131-0.674-0.231-1.058-0.27-1.145l-1.435-3.504l-1.514-0.377L89.708,34.938"/>
	<path fill-rule="evenodd" clip-rule="evenodd" fill="#E2362B" d="M99.067,35.481l1.314-1.569c0.059-0.074,0.231-0.29,0.502-0.652
		c-0.072,0.447-0.115,0.717-0.128,0.811l-0.208,2.039L99.067,35.481 M96.117,36.635l1.481,0.629l0.697-0.858l2.115,0.898
		l-0.141,1.094l1.482,0.629l0.431-6.26l-1.863-0.791L96.117,36.635z"/>
	<polyline fill="#E2362B" points="102.415,39.456 103.844,40.249 106.719,35.061 105.29,34.269 102.415,39.456 	"/>
	<path fill-rule="evenodd" clip-rule="evenodd" fill="#E2362B" d="M105.13,40.993l1.243,0.871l1.333-1.903l-0.219,2.683l1.495,1.047
		l0.045-2.885c0.812,0.345,1.53,0.129,2.059-0.625c0.352-0.502,0.452-1.05,0.289-1.57c-0.191-0.609-0.702-0.978-1.375-1.449
		c-0.027-0.02-0.055-0.039-0.082-0.057l-1.386-0.971L105.13,40.993 M108.167,39.302l0.895-1.278l0.266,0.186
		c0.55,0.386,0.688,0.725,0.33,1.234c-0.3,0.428-0.688,0.419-1.245,0.029L108.167,39.302z"/>
	<polyline fill="#E2362B" points="109.568,44.216 112.31,46.6 113.181,45.599 111.628,44.249 112.287,43.491 113.752,44.765 
		114.584,43.807 113.12,42.533 113.794,41.757 115.347,43.107 116.202,42.124 113.459,39.74 109.568,44.216 	"/>
	<path fill="#E2362B" d="M116.689,48.472l-1.395,0.19c-0.068,0.877,0.122,1.534,0.649,2.185c0.877,1.083,2.095,1.229,3.055,0.451
		c0.852-0.689,0.789-1.386,0.345-2.382c-0.229-0.508-0.414-0.881-0.086-1.147c0.22-0.177,0.549-0.113,0.8,0.196
		c0.229,0.284,0.357,0.692,0.348,1.181l1.221-0.337c-0.047-0.625-0.276-1.186-0.694-1.701c-0.783-0.967-1.927-1.076-2.785-0.381
		c-0.722,0.584-0.728,1.262-0.273,2.271c0.287,0.632,0.381,0.972,0.014,1.27c-0.271,0.219-0.66,0.161-0.941-0.188
		C116.647,49.712,116.568,49.179,116.689,48.472"/>
	<path fill="#E2362B" d="M123.126,50.111l-2.115,1.374c-0.201,0.131-0.389,0.253-0.57,0.37c-0.778,0.506-1.341,0.92-1.535,1.611
		c-0.181,0.621,0.005,1.332,0.552,2.174c1.025,1.579,2.083,1.792,3.586,0.816c0.466-0.303,0.744-0.483,0.842-0.547L126,54.535
		l-0.877-1.349l-2.08,1.351c-0.104,0.068-0.209,0.136-0.306,0.199c-1.064,0.691-1.603,0.991-2.14,0.163
		c-0.456-0.703-0.178-1.111,0.706-1.685c0.354-0.23,0.556-0.361,0.619-0.402l2.08-1.351L123.126,50.111"/>
	<polyline fill="#E2362B" points="121.642,59.049 122.41,60.492 127.646,57.708 126.878,56.265 121.642,59.049 	"/>
	<path fill="#E2362B" d="M124.891,61.292l-1.393-0.202c-0.308,0.825-0.306,1.509,0.021,2.28c0.545,1.282,1.675,1.758,2.813,1.275
		c1.008-0.428,1.14-1.115,0.988-2.195c-0.081-0.551-0.156-0.961,0.233-1.126c0.26-0.11,0.559,0.042,0.715,0.409
		c0.142,0.336,0.152,0.764,0.008,1.231l1.268,0.012c0.127-0.613,0.061-1.215-0.199-1.827c-0.486-1.146-1.557-1.565-2.571-1.134
		c-0.855,0.363-1.049,1.012-0.89,2.107c0.102,0.687,0.099,1.04-0.337,1.225c-0.32,0.136-0.679-0.027-0.854-0.44
		C124.509,62.473,124.58,61.938,124.891,61.292"/>
	<path fill="#E2362B" d="M126.808,66.185l-1.357-0.37c-0.406,0.781-0.487,1.46-0.257,2.265c0.384,1.34,1.447,1.949,2.636,1.608
		c1.053-0.302,1.268-0.967,1.248-2.058c-0.013-0.557-0.037-0.973,0.369-1.089c0.271-0.078,0.55,0.11,0.659,0.492
		c0.101,0.351,0.059,0.777-0.142,1.223l1.256,0.166c0.201-0.593,0.209-1.199,0.026-1.837c-0.344-1.196-1.354-1.743-2.415-1.439
		c-0.893,0.256-1.164,0.877-1.14,1.984c0.018,0.694-0.028,1.044-0.483,1.174c-0.335,0.096-0.67-0.11-0.794-0.54
		C126.285,67.31,126.419,66.788,126.808,66.185"/>
	<polyline fill="#E2362B" points="126.207,71.304 126.775,74.893 128.085,74.685 127.763,72.653 128.755,72.496 129.059,74.413 
		130.312,74.215 130.008,72.297 131.025,72.137 131.346,74.168 132.632,73.965 132.064,70.376 126.207,71.304 	"/>
	<path fill-rule="evenodd" clip-rule="evenodd" fill="#E2362B" d="M30.072,92.9l1.908-0.44l0.065,0.283
		c0.03,0.129,0.06,0.258,0.088,0.38c0.125,0.541,0.252,0.98,0.578,1.321c0.426,0.447,1.066,0.598,1.833,0.42
		c0.744-0.172,1.272-0.608,1.479-1.192c0.187-0.52,0.062-1.096-0.106-1.823c-0.007-0.032-0.017-0.072-0.026-0.113l-0.381-1.648
		l-5.779,1.334L30.072,92.9 M33.248,92.167l1.358-0.313l0.073,0.315c0.147,0.639,0.119,1.028-0.439,1.156
		c-0.558,0.129-0.767-0.188-0.922-0.859L33.248,92.167z"/>
	<path fill-rule="evenodd" clip-rule="evenodd" fill="#E2362B" d="M33.699,97.624l2.044-0.108c0.094-0.008,0.369-0.028,0.819-0.077
		c-0.376,0.252-0.603,0.404-0.68,0.459l-1.633,1.239L33.699,97.624 M30.843,96.254l0.551,1.512l1.103-0.074l0.786,2.159
		l-0.896,0.644l0.55,1.512l4.873-3.953l-0.692-1.902L30.843,96.254z"/>
	<polyline fill="#E2362B" points="33.831,103.671 34.565,105.112 38.601,103.056 39.203,104.238 40.453,103.602 38.517,99.803 
		37.268,100.439 37.866,101.614 33.831,103.671 	"/>
	<path fill-rule="evenodd" clip-rule="evenodd" fill="#E2362B" d="M35.98,107.678l0.849,1.259l1.925-1.299l-1.165,2.427l1.021,1.513
		l1.076-2.677c0.634,0.613,1.382,0.669,2.145,0.154c0.509-0.344,0.799-0.819,0.833-1.362c0.04-0.638-0.305-1.165-0.764-1.846
		c-0.019-0.027-0.038-0.055-0.056-0.083l-0.946-1.402L35.98,107.678 M39.421,107.188l1.293-0.872l0.181,0.269
		c0.375,0.557,0.382,0.923-0.134,1.271c-0.433,0.292-0.793,0.145-1.173-0.419L39.421,107.188z"/>
	<polyline fill="#E2362B" points="39.404,112.527 40.433,113.798 45.042,110.065 44.014,108.795 39.404,112.527 	"/>
	<path fill="#E2362B" d="M46.507,120.163l3.548-4.84l-1.132-1.132l-2.798,1.52c-0.2,0.105-0.44,0.24-0.704,0.446
		c0.217-0.288,0.34-0.528,0.434-0.705l1.531-2.798l-1.132-1.132l-4.839,3.549l1.062,1.062l2.059-1.566
		c0.288-0.217,0.634-0.492,1.032-0.845c-0.311,0.429-0.475,0.769-0.592,0.98l-1.396,2.533l0.763,0.763l2.534-1.396
		c0.211-0.117,0.552-0.281,0.98-0.593c-0.352,0.398-0.634,0.739-0.851,1.026l-1.566,2.06L46.507,120.163"/>
	<path fill-rule="evenodd" clip-rule="evenodd" fill="#E2362B" d="M54.837,122.456c0.48-0.687,0.665-1.5,0.507-2.329
		c-0.156-0.818-0.639-1.562-1.318-2.037c-0.68-0.476-1.536-0.67-2.358-0.537c-0.834,0.135-1.537,0.574-2.022,1.268
		c-0.547,0.781-0.699,1.708-0.43,2.625c0.207,0.702,0.651,1.327,1.242,1.741c0.68,0.476,1.531,0.677,2.365,0.542
		C53.644,123.595,54.352,123.148,54.837,122.456 M51.242,122.065c-0.775-0.543-0.833-1.516-0.271-2.317
		c0.557-0.795,1.522-1.061,2.27-0.537c0.741,0.519,0.823,1.528,0.271,2.317C52.956,122.323,51.997,122.593,51.242,122.065z"/>
	<path fill="#E2362B" d="M54.823,125.864l1.39,0.708l1.33-2.609c0.143-0.28,0.29-0.643,0.45-1.083
		c-0.024,0.686-0.008,1.076,0.009,1.168l0.606,3.744l1.382,0.705l2.692-5.285l-1.382-0.704l-1.33,2.609
		c-0.143,0.28-0.291,0.644-0.45,1.083c0.024-0.686,0.012-1.083-0.006-1.176l-0.609-3.736l-1.39-0.709L54.823,125.864"/>
	<polyline fill="#E2362B" points="61.893,129.164 63.419,129.75 65.544,124.213 64.019,123.627 61.893,129.164 	"/>
	<path fill="#E2362B" d="M73.518,126.521c-0.451-0.35-0.904-0.573-1.423-0.684c-1.712-0.364-3.219,0.663-3.592,2.416
		s0.586,3.306,2.298,3.669c0.52,0.11,1.024,0.091,1.579-0.046l0.367-1.729c-0.522,0.381-0.976,0.521-1.487,0.413
		c-0.925-0.196-1.372-1.046-1.182-1.938c0.208-0.981,0.966-1.551,1.882-1.355c0.511,0.108,0.869,0.422,1.19,0.982L73.518,126.521"/>
	<path fill="#E2362B" d="M74.543,126.462l-0.176,2.516c-0.017,0.239-0.032,0.463-0.047,0.678c-0.065,0.927-0.072,1.625,0.362,2.196
		c0.388,0.518,1.066,0.798,2.068,0.868c1.878,0.131,2.685-0.586,2.81-2.373c0.039-0.555,0.062-0.886,0.07-1.001l0.176-2.516
		l-1.605-0.112l-0.173,2.474c-0.009,0.124-0.018,0.248-0.025,0.364c-0.089,1.266-0.173,1.876-1.158,1.807
		c-0.836-0.059-0.994-0.526-0.92-1.578c0.029-0.422,0.046-0.662,0.051-0.736l0.173-2.474L74.543,126.462"/>
	<polyline fill="#E2362B" points="81.554,132.693 85.17,132.44 85.074,131.059 83.072,131.198 82.754,126.664 81.141,126.776 
		81.554,132.693 	"/>
	<polyline fill="#E2362B" points="86.462,132.298 88.081,132.07 87.255,126.197 85.637,126.425 86.462,132.298 	"/>
	<path fill="#E2362B" d="M90.061,131.788l1.514-0.377l-0.709-2.841c-0.076-0.307-0.203-0.677-0.371-1.113
		c0.432,0.533,0.699,0.817,0.773,0.876l2.914,2.428l1.505-0.375l-1.435-5.755l-1.505,0.375l0.708,2.841
		c0.076,0.307,0.203,0.677,0.371,1.113c-0.432-0.533-0.701-0.825-0.775-0.884l-2.911-2.42l-1.514,0.377L90.061,131.788"/>
	<path fill-rule="evenodd" clip-rule="evenodd" fill="#E2362B" d="M98.394,127.06l-0.18-2.039c-0.011-0.094-0.041-0.367-0.105-0.815
		c0.265,0.367,0.425,0.588,0.482,0.663l1.295,1.589L98.394,127.06 M97.125,129.962l1.491-0.603l-0.112-1.101l2.13-0.86l0.675,0.873
		l1.492-0.604l-4.122-4.731l-1.876,0.759L97.125,129.962z"/>
	<path fill-rule="evenodd" clip-rule="evenodd" fill="#E2362B" d="M104.118,126.918l1.314-0.759l-1.161-2.012l2.339,1.332
		l1.581-0.913l-2.596-1.26c0.656-0.59,0.764-1.332,0.304-2.13c-0.308-0.531-0.762-0.854-1.301-0.925
		c-0.634-0.085-1.184,0.224-1.895,0.634c-0.028,0.017-0.058,0.033-0.086,0.05l-1.466,0.847L104.118,126.918 M103.869,123.451
		l-0.78-1.351l0.28-0.162c0.582-0.336,0.947-0.316,1.259,0.222c0.261,0.453,0.089,0.802-0.5,1.142L103.869,123.451z"/>
	<path fill="#E2362B" d="M110.723,120.404l0.214,1.391c0.879,0.053,1.532-0.149,2.174-0.688c1.068-0.896,1.192-2.115,0.397-3.063
		c-0.703-0.839-1.398-0.764-2.387-0.303c-0.504,0.238-0.874,0.43-1.146,0.105c-0.181-0.216-0.122-0.546,0.183-0.803
		c0.279-0.234,0.686-0.369,1.175-0.368l-0.359-1.215c-0.623,0.058-1.18,0.298-1.688,0.724c-0.953,0.8-1.041,1.946-0.332,2.792
		c0.597,0.712,1.274,0.706,2.275,0.234c0.627-0.299,0.965-0.398,1.27-0.036c0.224,0.267,0.172,0.656-0.171,0.944
		C111.964,120.425,111.432,120.513,110.723,120.404"/>
	<path fill="#E2362B" d="M117.122,117.236l0.854-0.884l-2.538-5.91l-1.193,1.235l1.569,3.152c0.03,0.064,0.169,0.303,0.429,0.703
		c-0.409-0.246-0.646-0.383-0.712-0.41l-3.21-1.452l-1.193,1.235L117.122,117.236"/>
	<polyline fill="#E2362B" points="120.357,113.675 121.385,112.405 116.776,108.673 115.748,109.942 120.357,113.675 	"/>
	<polyline fill="#E2362B" points="125.108,107.064 124.036,106.341 122.556,108.535 120.381,103.466 117.588,107.606 
		118.655,108.325 120,106.331 122.176,111.411 125.108,107.064 	"/>
	<polyline fill="#E2362B" points="128.047,101.218 126.884,100.651 125.724,103.029 122.866,98.313 120.677,102.801 
		121.833,103.364 122.887,101.202 125.75,105.93 128.047,101.218 	"/>
	<polyline fill="#E2362B" points="128.687,99.534 129.87,96.099 128.615,95.667 127.945,97.611 126.996,97.285 127.627,95.449 
		126.428,95.036 125.796,96.871 124.824,96.536 125.494,94.592 124.262,94.168 123.079,97.604 128.687,99.534 	"/>
	<path fill-rule="evenodd" clip-rule="evenodd" fill="#E2362B" d="M130.379,94.403l0.341-1.479l-2.263-0.522l2.569-0.804l0.41-1.778
		l-2.691,1.039c0.016-0.882-0.453-1.467-1.351-1.674c-0.599-0.138-1.144-0.025-1.563,0.32c-0.494,0.405-0.644,1.018-0.829,1.817
		c-0.007,0.033-0.015,0.065-0.021,0.098l-0.381,1.648L130.379,94.403 M127.673,92.222l-1.52-0.352l0.073-0.315
		c0.15-0.654,0.414-0.908,1.02-0.769c0.51,0.117,0.646,0.481,0.494,1.145L127.673,92.222z"/>
</g>
</svg>
