<?xml version="1.0" encoding="UTF-8"?>
<svg id="Logo" xmlns="http://www.w3.org/2000/svg" version="1.1" viewBox="0 0 653.5076058 242.3832742">
  <!-- Generator: Adobe Illustrator 29.4.0, SVG Export Plug-In . SVG Version: 2.1.0 Build 152)  -->
  <path d="M264.0593636,209.0375711h7.7421875l12.5878906,32.7753906h-7.1728516l-2.3271484-6.3652344h-14.1074219l-2.2802734,6.3652344h-7.0771484l12.6347656-32.7753906ZM272.6570199,229.4155008l-4.7978516-13.1582031-4.8447266,13.1582031h9.6425781Z" fill="#cd3200"/>
  <path d="M287.2869027,229.1303445v-20.0927734h6.5546875v19.9980469c0,3.9892578,2.9921875,7.0292969,7.0302734,7.0292969,4.0371094,0,7.0302734-3.0400391,7.0302734-7.0292969v-19.9980469h6.5546875v20.0927734c0,7.5527344-5.8427734,13.2529297-13.5849609,13.2529297-7.7431641,0-13.5849609-5.7001953-13.5849609-13.2529297Z" fill="#cd3200"/>
  <path d="M320.4421761,232.122532h6.7451172c0,2.4707031,2.4697266,4.4179688,5.6044922,4.4179688,2.8974609,0,5.2724609-1.5673828,5.2724609-3.7998047,0-5.7480469-17.0996094-3.1826172-17.0996094-14.3457031,0-6.0322266,5.1298828-9.9277344,11.5898438-9.9277344,6.6503906,0,11.7324219,4.2275391,11.7324219,9.8330078h-6.7451172c0-2.2802734-2.1845703-3.9902344-5.0820312-3.9902344-2.5654297,0-4.75,1.3779297-4.75,3.5625,0,5.8427734,17.0996094,2.7548828,17.0996094,14.1074219,0,6.3183594-5.3193359,10.4033203-12.0644531,10.4033203-7.0302734,0-12.3027344-4.4658203-12.3027344-10.2607422Z" fill="#cd3200"/>
  <path d="M363.9050667,209.0375711h6.5546875v13.2050781h14.5351562v-13.2050781h6.5556641v32.7753906h-6.5556641v-13.3955078h-14.5351562v13.3955078h-6.5546875v-32.7753906Z" fill="#cd3200"/>
  <path d="M398.245887,225.4252664c0-9.6425781,7.4101562-16.9580078,17.2900391-16.9580078,9.8330078,0,17.2900391,7.3154297,17.2900391,16.9580078s-7.4570312,16.9580078-17.2900391,16.9580078c-9.8798828,0-17.2900391-7.3154297-17.2900391-16.9580078ZM426.080848,225.4252664c0-6.0800781-4.5595703-10.640625-10.5449219-10.640625-6.0322266,0-10.5927734,4.5605469-10.5927734,10.640625s4.5605469,10.6396484,10.5927734,10.6396484c5.9853516,0,10.5449219-4.5595703,10.5449219-10.6396484Z" fill="#cd3200"/>
  <path d="M437.8601449,225.4252664c0-9.6425781,7.4101562-16.9580078,17.2900391-16.9580078,8.3125,0,14.9628906,5.3203125,16.4833984,12.7783203h-6.9355469c-1.3300781-3.8476562-5.0830078-6.4609375-9.5478516-6.4609375-6.0322266,0-10.5927734,4.5605469-10.5927734,10.640625s4.5605469,10.6396484,10.5927734,10.6396484c4.4648438,0,8.2177734-2.6123047,9.5478516-6.4599609h6.9355469c-1.5205078,7.4580078-8.1708984,12.7783203-16.4833984,12.7783203-9.8798828,0-17.2900391-7.3154297-17.2900391-16.9580078Z" fill="#cd3200"/>
  <path d="M478.0935433,209.0375711h6.5546875v13.2050781h14.5351562v-13.2050781h6.5556641v32.7753906h-6.5556641v-13.3955078h-14.5351562v13.3955078h-6.5546875v-32.7753906Z" fill="#cd3200"/>
  <path d="M511.2947152,209.0375711h7.2675781l7.3144531,23.75,7.3632812-23.75h5.984375l7.4101562,23.75,7.2675781-23.75h7.0302734l-11.0673828,32.7753906h-6.6025391l-7.125-22.7529297-7.0302734,22.7529297h-6.6503906l-11.1621094-32.7753906Z" fill="#cd3200"/>
  <path d="M572.0945199,209.0375711h7.7421875l12.5878906,32.7753906h-7.1728516l-2.3271484-6.3652344h-14.1074219l-2.2802734,6.3652344h-7.0771484l12.6347656-32.7753906ZM580.6921761,229.4155008l-4.7978516-13.1582031-4.8447266,13.1582031h9.6425781Z" fill="#cd3200"/>
  <path d="M597.4587777,209.0375711h6.5546875v26.6005859h13.8232422v6.1748047h-20.3779297v-32.7753906Z" fill="#cd3200"/>
  <path d="M623.9626839,209.0375711h12.8251953c9.5478516,0,16.7197266,7.0302734,16.7197266,16.3876953s-7.171875,16.3876953-16.7197266,16.3876953h-12.8251953v-32.7753906ZM630.5173714,215.2123758v20.4257812h6.1279297c5.7949219,0,10.1171875-4.3701172,10.1171875-10.2128906s-4.3222656-10.2128906-10.1171875-10.2128906h-6.1279297Z" fill="#cd3200"/>
  <path d="M0,118.4008523h32.4018555c10.2006836,0,18.1010742,7.4008789,18.1010742,17.4013672,0,6.6000977-3.5,12.3007812-8.2001953,14.9008789,7.1000977,2.2001953,12.1005859,9.5004883,12.1005859,18.0004883,0,10.9013672-8.300293,18.7011719-19.2011719,18.7011719H0v-69.0039062ZM11.5004883,129.1015359v17.6010742h18.0014648c4.800293,0,8.7001953-3.800293,8.7001953-8.800293,0-5.0004883-3.7001953-8.8007812-8.7001953-8.8007812H11.5004883ZM11.5004883,156.8031961v19.9013672h20.8012695c5.6005859,0,9.9008789-4.4003906,9.9008789-10.0009766s-4.300293-9.9003906-9.9008789-9.9003906H11.5004883Z" fill="#325825"/>
  <path d="M63.0752003,168.903782v-32.5014648h11.2006836v29.2016602c0,7.2998047,4.7001953,12.2001953,11.9008789,12.2001953,7.6000977,0,12.7006836-5,12.7006836-12.4003906v-29.0014648h11.2006836v51.0024414h-11.2006836v-6.2998047c-3.9003906,4.9003906-9.5004883,7.5-16.3012695,7.5-11.7006836,0-19.5009766-7.8007812-19.5009766-19.7011719Z" fill="#325825"/>
  <path d="M128.4746144,171.7035867v-25.1010742h-8.6005859v-10.2001953h5.2001953c2.6005859,0,4.0004883-1.4003906,4.0004883-4.0004883v-9.800293h10.6005859v13.8007812h12.6005859v10.2001953h-12.6005859v23.3012695c0,4.5,2.800293,7.2001953,7.5004883,7.2001953h5.1000977v10.3007812h-6.7001953c-11.1005859,0-17.1010742-5.6005859-17.1010742-15.7011719Z" fill="#325825"/>
  <path d="M168.0443227,171.7035867v-25.1010742h-8.6005859v-10.2001953h5.2001953c2.6005859,0,4.0004883-1.4003906,4.0004883-4.0004883v-9.800293h10.6005859v13.8007812h12.6005859v10.2001953h-12.6005859v23.3012695c0,4.5,2.800293,7.2001953,7.5004883,7.2001953h5.1000977v10.3007812h-6.7001953c-11.1005859,0-17.1010742-5.6005859-17.1010742-15.7011719Z" fill="#325825"/>
  <path d="M198.6840341,161.903782c0-15.2011719,11.7011719-26.7016602,27.2016602-26.7016602,15.6010742,0,27.3022461,11.5004883,27.3022461,26.8012695,0,1.4003906-.1005859,2.9003906-.3007812,4.2001953h-42.2021484c1.7001953,7.4003906,7.7001953,12.3007812,15.7011719,12.3007812,5.8999023,0,11-2.5996094,13.6005859-6.5h12.4003906c-4.0996094,9.9003906-14.1005859,16.6005859-26.2011719,16.6005859-15.8007812,0-27.5019531-11.5009766-27.5019531-26.7011719ZM210.7851083,157.0033914h30.4018555c-1.7001953-7.0004883-7.7006836-11.7006836-15.3012695-11.7006836-7.4003906,0-13.3007812,4.6000977-15.1005859,11.7006836Z" fill="#325825"/>
  <path d="M262.9848153,136.4023172h11.2001953v6.5c4.1005859-5,10.0009766-7.7001953,17.2011719-7.7001953,12.1005859,0,20.2011719,8.0004883,20.2011719,20.1010742v32.1015625h-11.2001953v-28.4013672c0-7.800293-5.0009766-13.0004883-12.7011719-13.0004883-8.1005859,0-13.5009766,5.300293-13.5009766,13.2006836v28.2011719h-11.2001953v-51.0024414Z" fill="#325825"/>
  <path d="M323.4866097,136.4023172h11.2001953v5.9003906c3.8007812-4.6005859,9.2011719-7.1005859,15.8017578-7.1005859,7.7001953,0,13.6005859,3.5,16.6005859,9.300293,3.9003906-6,10.1005859-9.300293,18.0004883-9.300293,11.3007812,0,18.8007812,7.6005859,18.8007812,19.1010742v33.1015625h-11.2001953v-29.8012695c0-7.0004883-4.4003906-11.6005859-11.3007812-11.6005859-7.199707,0-12.1000977,4.7001953-12.1000977,11.8007812v29.6010742h-11.2011719v-29.8012695c0-7.0004883-4.4003906-11.6005859-11.3007812-11.6005859-7.2001953,0-12.1005859,4.7001953-12.1005859,11.8007812v29.6010742h-11.2001953v-51.0024414Z" fill="#325825"/>
  <path d="M413.7829964,161.903782c0-15.2011719,11.7011719-26.7016602,27.3017578-26.7016602,15.5009766,0,27.3017578,11.5004883,27.3017578,26.7016602,0,15.2001953-11.8007812,26.7011719-27.3017578,26.7011719-15.6005859,0-27.3017578-11.5009766-27.3017578-26.7011719ZM456.7859261,161.903782c0-9.0004883-6.7001953-15.9008789-15.7011719-15.9008789-9,0-15.8007812,6.9003906-15.8007812,15.9008789,0,9,6.8007812,15.9003906,15.8007812,15.9003906,9.0009766,0,15.7011719-6.9003906,15.7011719-15.9003906Z" fill="#325825"/>
  <path d="M475.2829964,172.403782h11.4003906c0,3.9003906,3.7001953,6.5009766,9.1005859,6.5009766,5,0,8.3007812-2.3007812,8.3007812-5.5009766,0-9.2001953-28.0019531-4.0996094-28.0019531-22.2006836,0-9.9008789,7.9003906-16.0009766,19.2011719-16.0009766,11.6005859,0,19.4013672,6.300293,19.4013672,15.5009766h-11.4003906c0-3.5004883-3.3007812-5.9003906-8.1005859-5.9003906-4.7001953,0-7.8007812,2.1000977-7.8007812,5.2001953,0,8.9003906,28.1015625,4.0004883,28.1015625,22.2006836,0,9.9013672-7.9003906,16.4013672-19.8007812,16.4013672-12.3007812,0-20.4013672-6.6005859-20.4013672-16.2011719Z" fill="#325825"/>
  <path d="M528.6824105,171.7035867v-25.1010742h-8.6005859v-10.2001953h5.2001953c2.5996094,0,4-1.4003906,4-4.0004883v-9.800293h10.6005859v13.8007812h12.6005859v10.2001953h-12.6005859v23.3012695c0,4.5,2.7998047,7.2001953,7.5,7.2001953h5.1005859v10.3007812h-6.7001953c-11.1005859,0-17.1005859-5.6005859-17.1005859-15.7011719Z" fill="#325825"/>
  <path d="M619.6278003,100.8671221c-5.0076679,8.4817203-14.406914,9.8809102-16.7422006,8.5021405-1.816334-1.0723765-5.6503786-10.2845949-.6427107-18.7663152,3.8092965-6.4519828,12.6886063-10.0021754,16.7202227-11.3318572,1.1143718-.367535,2.2938138.3288159,2.5102881,1.4820918.7831687,4.1723651,1.963697,13.6619572-1.8455995,20.1139401Z" fill="#325825"/>
  <path d="M604.3408997,135.3186098c-5.1075561-8.4219468-1.8979457-17.3663284.4208832-18.7726006,1.8035337-1.0937673,11.7339543-.1182615,16.8415104,8.3036853,3.8852807,6.4065136,2.816984,15.9093948,2.0831794,20.0907242-.2028296,1.1557538-1.3739596,1.8659948-2.4925972,1.5116553-4.0470491-1.2819428-12.9676952-4.7269506-16.8529759-11.1334642Z" fill="#325825"/>
  <path d="M635.2431513,120.8358204c-9.8019965.968082-16.4821416-5.7905584-16.7486853-8.4893589-.2073118-2.099067,4.9624189-10.6336291,14.7644154-11.6017111,7.4563073-.7364129,15.5651973,4.3323062,19.0192225,6.8004419.9547209.682213,1.0893395,2.0452484.286518,2.9010429-2.9044778,3.0961254-9.8651632,9.6531723-17.3214705,10.3895853Z" fill="#325825"/>
  <g>
    <path d="M557.9379865,66.7975007l8.1760355-4.1982922c.5144503-.2641638.9454106-.6730379,1.207898-1.1883455,3.9380236-7.7310144,6.0101421-22.1523586-.34067-34.4356502-8.4620591-16.3673411-28.7279057-22.7044789-34.6081238-19.664271-6.7858866,3.5084135-12.4261036,23.2394509-3.9640724,39.6067377,6.3384111,12.2591327,19.2797444,18.8951271,27.8607743,20.1723081.5725061.0852105,1.1532604-.0280931,1.6681585-.2924868Z" fill="#cd3200"/>
    <path d="M540.9858895,3.4382058c-.5037842-.9744263-1.6091309-1.5368042-3.0478516-1.6987305-.008728-.0176392-.0119019-.0365601-.0209961-.0541382-.8165283-1.5792847-2.8505249-2.1502075-4.5430908-1.2750854-.2687378.138916-.5027466.3137207-.7197266.5027466-.9624634-.5404053-2.2078857-.5951538-3.3135376-.0235596-1.1055908.5715942-1.7810059,1.6195679-1.8964844,2.7172852-.2797241.0678101-.5576172.1576538-.826355.2965698-1.6925049.875061-2.40271,2.8646851-1.5861816,4.4440308.0090942.0175781.022644.0311279.0320435.0484009-.699646,1.2674561-.8798218,2.4945679-.3760376,3.4689941,1.2062378,2.3330078,5.8325195,2.3380127,10.3331909.0110474,4.5006104-2.3269043,7.1712646-6.1045532,5.9650269-8.437561Z" fill="#325825"/>
    <path d="M532.4757137,18.8817563c.0006072-.0059784,4.2953547-.7706559,10.0888378-4.1853203,0,0,1.7348745,2.2363556.4523174,8.9382519-1.7229031,9.0028884,2.731344,16.6983747,2.731344,16.6983747,0,0-9.7587698,5.1067789-9.7601187,5.104488-.0452004-.0767673-4.0823447-7.1764561-4.2588149-15.8587916-.1032883-5.0817833.5764694-9.0235112.7464345-10.6970027Z" fill="#325825"/>
  </g>
  <g>
    <path d="M593.9954717,64.064247l7.6245893,5.1321391c.4797524.3229231,1.0459055.5028547,1.6239028.4838619,8.6715294-.2849438,22.300533-5.434614,29.9898136-16.9275262,10.2460317-15.313887,6.0087682-36.1203631.5069465-39.8013667-6.3491696-4.2479722-26.3507807.3413022-36.5967783,15.6551385-7.6741139,11.4703864-7.2356082,26.0073133-4.2101614,34.138238.2018507.5424761.5815177.9963112,1.0616876,1.3195153Z" fill="#cd3200"/>
    <path d="M641.3441049,15.0893289c.9886475-1.4776611.5062866-3.5344238-1.0773315-4.5939941-.2514038-.1682129-.5175171-.2886963-.7878418-.3874512.0084229-1.1037598-.5450439-2.2208252-1.5794678-2.9129028-1.0344238-.6921387-2.2781982-.7774658-3.2952271-.3485718-.194397-.2122192-.4072876-.4121704-.6587524-.5803833-1.5836792-1.0595093-3.6688843-.7205811-4.6575317.7570801-.0109863.0164185-.0162964.0348511-.0269165.0514526-1.4477539-.0006104-2.609314.4341431-3.2192993,1.3458862-1.4604492,2.1829224.7692871,6.2364502,4.9802856,9.053833s8.8085938,3.3317261,10.269104,1.1488647c.6099854-.9117432.5687256-2.1512451.0157471-3.4893188.0112305-.0161133.0262451-.0280762.0372314-.0444946Z" fill="#325825"/>
    <path d="M623.6580288,18.6288137c.0055284-.0023553,2.7490977,3.3891657,8.5369355,6.8133903,0,0-1.1205307,2.599132-7.6085473,4.7124246-8.7155766,2.8388589-13.30331,10.4555201-13.30331,10.4555201,0,0-9.1844387-6.0793804-9.183084-6.0816679.0453954-.0766521,4.3128276-7.0403536,11.8304846-11.3876428,4.4000954-2.5444746,8.1800147-3.8527173,9.7275212-4.5120242Z" fill="#325825"/>
  </g>
  <g>
    <path d="M542.0922422,98.3492708l.5826263-9.1724457c.0366599-.5771462-.0937304-1.1567177-.401831-1.646121-4.6223453-7.3423796-15.9463795-16.5094453-29.7489117-17.3474007-18.3915459-1.1168432-34.215442,13.0418348-34.6166134,19.6493223-.4629989,7.6251461,13.5933726,22.5765443,31.9848576,23.6933837,13.7754313.8362302,26.1039454-6.8788375,31.5965394-13.5942434.3664529-.4480361.5666411-1.0048466.6033328-1.5824951Z" fill="#cd3200"/>
    <path d="M478.9934579,80.4518777c-1.0949097-.0664673-2.1442261.5947266-3.0202637,1.7473755-.0196533-.0015869-.0374756-.0084839-.0571899-.0097046-1.7745972-.1077271-3.3068237,1.3466797-3.4223022,3.2485352-.0183105.3019409.0119629.5924683.0631104.8756714-.9571533.5497437-1.6422119,1.5914307-1.7176514,2.8337402s.4785767,2.3591309,1.3621826,3.0206909c-.085083.2749634-.1503296.5596924-.1686401.8616333-.1154785,1.9018555,1.2295532,3.5310059,3.0041504,3.6387329.0197144.0012207.0383301-.00354.0579834-.0027466.7301636,1.2501831,1.6916504,2.0335693,2.7866211,2.1000366,2.621582.1591797,4.9957275-3.8115234,5.3027954-8.8687744s-1.5692139-9.2860107-4.1907959-9.4451904Z" fill="#325825"/>
    <path d="M487.8974368,95.6717764c-.0048234-.003584,1.5384719-4.0837589,1.5736176-10.8085745,0,0,2.8093567-.34437,7.9081507,4.1902376,6.8493858,6.0914949,15.7402362,6.2081335,15.7402362,6.2081335,0,0-.6131601,10.9971276-.6158186,10.9971125-.0890844-.0005053-8.2545809-.1701619-15.8016373-4.46621-4.4173029-2.5144831-7.4543685-5.1174664-8.8045485-6.120699Z" fill="#325825"/>
  </g>
  <path d="M580.9226749,146.5285579s.2705877-22.9293656-2.9764646-31.3999367c-1.6599656-4.330345-3.9986028-9.1323314-9.07057-12.2117401-4.9411665-2.999994-10.6003281-3.0718911-15.9048946-3.073352l.7108075-11.1677958s11.4882121.2647053,15.7764388,2.258819l-7.3397854-14.0690505,9.7910156-5.0146484s5.9075764,10.6454807,7.9311018,15.3748829c0,0,1.5265844-8.2281301,6.7515154-15.0140431l9.1289062,6.1376953s-5.6306852,7.0150564-6.2922057,21.3527932c-.2705877,5.8646941.6470575,14.4058533,1.4705853,24.6058328.5370636,6.6519164.982351,17.1646713.9294099,22.2117199l-10.9058604.0088235Z" fill="#325825"/>
  <metadata>
    <sfw xmlns="http://ns.adobe.com/SaveForWeb/1.0/">
      <slices/>
      <sliceSourceBounds x="-7609.62" y="-8490" width="16383" height="16383" bottomLeftOrigin="true"/>
    </sfw>
  </metadata>
  <metadata><?xpacket begin="﻿" id="W5M0MpCehiHzreSzNTczkc9d"?>
<x:xmpmeta xmlns:x="adobe:ns:meta/" x:xmptk="Adobe XMP Core 9.1-c002 1.000000, 0000/00/00-00:00:00        ">
   <rdf:RDF xmlns:rdf="http://www.w3.org/1999/02/22-rdf-syntax-ns#">
      <rdf:Description rdf:about=""
            xmlns:dc="http://purl.org/dc/elements/1.1/"
            xmlns:xmp="http://ns.adobe.com/xap/1.0/"
            xmlns:xmpGImg="http://ns.adobe.com/xap/1.0/g/img/"
            xmlns:xmpMM="http://ns.adobe.com/xap/1.0/mm/"
            xmlns:stRef="http://ns.adobe.com/xap/1.0/sType/ResourceRef#"
            xmlns:stEvt="http://ns.adobe.com/xap/1.0/sType/ResourceEvent#"
            xmlns:illustrator="http://ns.adobe.com/illustrator/1.0/"
            xmlns:xmpTPg="http://ns.adobe.com/xap/1.0/t/pg/"
            xmlns:stDim="http://ns.adobe.com/xap/1.0/sType/Dimensions#"
            xmlns:xmpG="http://ns.adobe.com/xap/1.0/g/"
            xmlns:pdf="http://ns.adobe.com/pdf/1.3/">
         <dc:format>image/svg+xml</dc:format>
         <dc:title>
            <rdf:Alt>
               <rdf:li xml:lang="x-default">RZ_Logo_Buttenmost_PFADE</rdf:li>
            </rdf:Alt>
         </dc:title>
         <xmp:MetadataDate>2025-06-02T18:57:40+02:00</xmp:MetadataDate>
         <xmp:ModifyDate>2025-06-02T18:57:40+02:00</xmp:ModifyDate>
         <xmp:CreateDate>2025-06-02T18:57:40+02:00</xmp:CreateDate>
         <xmp:CreatorTool>Adobe Illustrator 29.4 (Macintosh)</xmp:CreatorTool>
         <xmp:Thumbnails>
            <rdf:Alt>
               <rdf:li rdf:parseType="Resource">
                  <xmpGImg:width>256</xmpGImg:width>
                  <xmpGImg:height>96</xmpGImg:height>
                  <xmpGImg:format>JPEG</xmpGImg:format>
                  <xmpGImg:image>/9j/4AAQSkZJRgABAgEAAAAAAAD/7QAsUGhvdG9zaG9wIDMuMAA4QklNA+0AAAAAABAAAAAAAAEA&#xA;AQAAAAAAAQAB/+4ADkFkb2JlAGTAAAAAAf/bAIQABgQEBAUEBgUFBgkGBQYJCwgGBggLDAoKCwoK&#xA;DBAMDAwMDAwQDA4PEA8ODBMTFBQTExwbGxscHx8fHx8fHx8fHwEHBwcNDA0YEBAYGhURFRofHx8f&#xA;Hx8fHx8fHx8fHx8fHx8fHx8fHx8fHx8fHx8fHx8fHx8fHx8fHx8fHx8fHx8f/8AAEQgAYAEAAwER&#xA;AAIRAQMRAf/EAaIAAAAHAQEBAQEAAAAAAAAAAAQFAwIGAQAHCAkKCwEAAgIDAQEBAQEAAAAAAAAA&#xA;AQACAwQFBgcICQoLEAACAQMDAgQCBgcDBAIGAnMBAgMRBAAFIRIxQVEGE2EicYEUMpGhBxWxQiPB&#xA;UtHhMxZi8CRygvElQzRTkqKyY3PCNUQnk6OzNhdUZHTD0uIIJoMJChgZhJRFRqS0VtNVKBry4/PE&#xA;1OT0ZXWFlaW1xdXl9WZ2hpamtsbW5vY3R1dnd4eXp7fH1+f3OEhYaHiImKi4yNjo+Ck5SVlpeYmZ&#xA;qbnJ2en5KjpKWmp6ipqqusra6voRAAICAQIDBQUEBQYECAMDbQEAAhEDBCESMUEFURNhIgZxgZEy&#xA;obHwFMHR4SNCFVJicvEzJDRDghaSUyWiY7LCB3PSNeJEgxdUkwgJChgZJjZFGidkdFU38qOzwygp&#xA;0+PzhJSktMTU5PRldYWVpbXF1eX1RlZmdoaWprbG1ub2R1dnd4eXp7fH1+f3OEhYaHiImKi4yNjo&#xA;+DlJWWl5iZmpucnZ6fkqOkpaanqKmqq6ytrq+v/aAAwDAQACEQMRAD8A9U4q7FXYq7FXYq7FXYq7&#xA;FXYq7FXYq7FXYq7FXYq7FXYq7FXYq7FXYq7FXYq7FXYqwX87LnUbf8utRawuPq0rtFHI4Yq5jeQB&#xA;kQr3bof8muUamfDAlsxaeeaXBD6i8M/Lb8zNY8nyzwKV1G1uCrS2ksklE4k1MTVKqzcvi+E5rRrJ&#xA;Q3r0+bttH2TileM5Ly8/TuA+jfJvnfRfNenm605yssVBc2klBJEx8QOqnsw65ssGojkFhwNZop6e&#xA;VS+B72QZe4iC1nW9K0Wxe+1S5S1tU2Mjnqf5VA3ZvYCuQnkjAWTQbcOGeSXDAWXj/nT/AJyEC2rQ&#xA;+U7ZvrSyDlc3aAr6QB5FIw1a8uNC3au2YJ7QiTQ+bn6jsjNCFggy/mjnTMPyb886r5v8sTXeqogv&#xA;bS5a3eWNeKyLwVw3HsfioaZmYZmQ3dRAk82e5azdirsVdirsVdirsVdirsVdirsVdirsVdirsVdi&#xA;rsVdirsVdirsVdirsVdirsVedfnxHK3kQsgJWO7haWnZaMu/+yYZg9oj938XcdhkfmP80vl/TiFu&#xA;mU7EggfMHNfqN4Ar2CRDVSiedEfazb8vvMdxoHmywvY3KwvIsF2taBoZWCuD8vtD3GU6bKYTBem1&#xA;+nGXDKJ58x731eSAKnYDqc6R4F8m/ml551HzLrc1yjt+joWaKxjH2UiBoGp/M/Un6PDNFPKM2Tc7&#xA;DkHpdTDJo9MBij6pfVLu/H43YfbWMpYSyOVPWg+19JyGXOK4QGrs7sbLxDNkkYy5/wBL4l9RfkYZ&#xA;D5Ag5V4i4n4f6vL+tc2fZ/8AdON23/jB9wegZmuodirsVdirsVdirsVdirsVdirsVdirsVdirsVd&#xA;irsVdirsVdirsVdirsVdirsVS7zHodrruh3mkXW0N5GULDcq3VHHurANleXGJxMT1btPnOLIJjmH&#xA;yh5i8q6j5b1eaw1G39KcElZaHhKldnjY9VP+3vnO5oTgeGXR7fR+BMHJjAuXPvvzWaDYzX+t6fZQ&#xA;AmW4uIo0oK7s4FfoyOONyA83IzzEISkegL621xZm0XUFg/vmtphF/rGM8envnS5PpNdz5/gI443y&#xA;sPjrOWfRkZpGkahq+owadp8LT3VwwWNF/FmPZR1J7ZOEDI0ObVlyxxxMpGgH1j5V0CHy/wCXrHR4&#xA;m5i0j4vIBTlIxLSNT/Kdic6XDj4IiPc8Dqs5y5DM9U1yxx3Yq7FXYq7FXYq7FXYq7FXYq7FXYq7F&#xA;XYq7FXYq7FXYq7FXYq7FXYq7FUv1jzBoujWstzqV5FbRwqGcMw5UNQtEHxGtDSgyE8kYCyW3Dhlk&#xA;lwxFl5RrP/ORCrM0ejaVziFQs92/Et/zzTp/wea3J2n/ADQ9Bh9n9vXL5frXaJ/zkPG86R61pfpR&#xA;MQGubVy3H39Jx0/2X344+0/5wRm9nyBcJfA/relyW/lXzho0UskcGq6bMOUTkV4kihodnRh0PQjN&#xA;hUMse8OkEsunnW8Zfj5sL8wR/l5+VNomrxaPJPe3LtHaMOUrK4WvH1ZSwiFO4+I79cpGHHi3A3Za&#xA;rtPNkFTlt8kfrX50eWNK8vaHrciSTw63ukEJUyRKgpMWqQD6T/CR3OXHMAAe9wTMAJfL+TfkTzE8&#xA;GuadLcWmn30azrbwARoyvRgyrKhZOQPSlPCmYstBjkbGzvMPbmaMK2l5llfkzQPJWkQzw+W/q8sk&#xA;bCK9nilWebmBXjK4LFfHjsPbMnDhhAel1+p1uTObmb+5kmXOM7FXYq7FXYq7FXYq7FXYq7FXYq7F&#xA;XYq7FXYq7FXYq7FXYq7FXYq7FXYq7FXyd+YvlHzppvmnVtS1iKWaC5nkMOpdYpRJUxKrdFIUU4/s&#xA;0p0zUayJHPvdj2LCfizMefBL49zDIdQki+CYFqd/2h9+UT04lvFydJ27kw+jOCa/037UxRw6K46M&#xA;ARX3zDIo09biyDJASHKQv5vYv+cdp743+rwCRvqAijdotygmLUVvY8Qfn9GbPswmyOjoPaGMeGJ/&#xA;iv7GJ/mX+YvnfUbbUdE1vSETSHuXFncTW00Mq+nIfSdJC3Dlx2OxqK5lZMkjsQ8fKRefaDbTavrO&#xA;kaNLIzQXF3FbRpXZBcSqrca9Kk5VHcgMBu9k/wCch/OmpafcWflLS5WtLI2qzXnpHgXVmZEhqKHg&#xA;qpUgbGvtmRnmRsG3JLoiP+cZ1NpovmDUbqRYLB5reNZZCEQNErl/iNO0i4dPyJXE9qstR0++iMtj&#xA;cxXUQNDJA6yLX5qSMyAbbrYl/wArn/LH/q+xf8i5/wDqnkPGj3sOML4vzi/LOWRY116AMxoC6yov&#xA;0syBR9Jx8WPevGGX29xBcwJPbyJNBKoaOWNgyMp3BVhUEHLGa/FXYq7FXYq7FXYq7FXYq7FXYq7F&#xA;XYq7FXYq7FXYq7FXYq7FXYqh9Q06x1Gylsr6BLi0nHGWGQVUjr/tHIyiJCjyZ48koSEomiHkfmH/&#xA;AJxz026naXSNQNvGxqLa5T1AoPZZVKtQe4PzzXy7Po+iVO3/AJVhkFZ8Yn59VHSf+cdAkyfpPVwb&#xA;ZKAw20ZDsB25uTx/4E5CPZtm5ScmXbojARxwqhQs/j73rOgeXtH0DT0sNKtlt7dd2puzt3Z2O7N7&#xA;nNjjxRgKiHRZ9RPLLimbKMurW2u7eS2uoUnt5lKSwyKHRlPUMpqCMsIaXyz5l8sweTPzisLa2+Gw&#xA;S/s72z5VPGJplbj4ngysv0ZgyjwzccipPUvzp0j8s31TSdR83Xd5bXLxvBDHZAMZIo25/vKo/EK0&#xA;vahNfuvzCNi2yYHV53+Z+k6jqFnp0nk+Fr3yDbxAWEdgskixTdZjcpQyCUsftOOh8a5TkF8vpa5j&#xA;u5Ib8qfy+/MS61631DT/AKzodnE4NxqMgaIMgIJRY2p6vLwpx8cGLHK+5YRNoT8mfIuiecddvrHV&#xA;mmWG3tfXjMDhG5eoq7kq21GwYYCR3RCNlnvn/wDIXylpHlLUdW0u6uorqwiM4FxIjxuF6oQEU1I+&#xA;zv1y2eAAWGcsYARv/OMuqajcaFq+nzszWVlNE1oWNQpmDmRF8AOAaniclpyaKcR2Zt5Z/NXyx5j8&#xA;w3Gg6elyL62WRpDLGqx0hcI1GDsep8MsjlBNMxME0yLX9bs9D0a71e9Dm1s0MkwjAZ+INNgSPHxy&#xA;cjQtJNJBon5oeWtZ8s6n5jtFuRp+lc/rQkjVZDwQSHgoYg7HxyAyAi0CYIt4J5k/MTQ9T/NvT/Nc&#xA;Ec66VZyWrOHVRKVgoXIQMR8vizFlkBnbSZeq3uGl/nF5S1Ly/quu26XQstH9L62HjUOfWbivBQ5B&#xA;3675kjKCCe5tExVvD5vzE0OX86R5z9OddJEiNw4qZuKWgt68eVN2FftdMxvEHHxNXF6rfRHkrz1o&#xA;nnGwnvtJWZYbeX0JBOgRuXENsAzbUbMuExLk3RlaSebfzq8j+Wrx7GeaW+vojxmt7JVk9Nv5XdmR&#xA;AR3HKo8MjLNEIMwEH5d/P3yFrN3HaSyT6XNIQqNeqixFj29RGdV+b0wRzxKBkBZ9qupW2maVeanc&#xA;8jbWMElzNwFWKRIXbiKipou2Wk0LZksDi/P38vX0qbUGmuIxG/ppavEPXlanL4EVmFB4sQMq8eNM&#xA;fECD0j/nIvyHfXq21xHeacsjcUubiNDEK9OZjeRl+6g8cA1ESgZQ9B1vXtP0fQ7nWrktJY2sXrO0&#xA;IDlk2oV3APXxy6UqFsyaYMf+cgvy9Gltf+pc8hIYksvSX6w9FDFgvPiF+KlWYb5V48aYeIF/lf8A&#xA;PnyRr2oxacfrGnXM7BIDdqgjdyaKodHehP8AlUxjniUjICt8yfn75F0W+ksYzcanPEeMr2ao0SsD&#xA;Qr6jugan+TUe+Ms8Qg5AGQeSfzJ8reco5f0TM63UA5TWVwoSZUJpyoCyste6sad8nDIJcmUZAp1r&#xA;eu6RoenSajq10lpZxfalkPU9lUCpZj2UCuSMgNykmnm0/wDzkp5EjufSjtNQmhBoZ1iiAPgVVpVa&#xA;nzAyn8xFh4oZ35T87+WvNdo1zot2J/SoJ4GBSWMt05o2/wBI2PY5bGYlyZiQKh5z/MLyx5Pt45NY&#xA;uGE01Tb2kK85pAOpC1AA92IGCeQR5olIBiOlf85GeQr27W3uI7zT1duK3FxGhiAOwLmN5GX7qDxy&#xA;saiJYjKEx/NT8yfL2gaLPp1wJZ7jWbCf6i8AV4mEiFFJfkNqtWoB2yWXIAK70zkA8o/Jf80PLXk3&#xA;TNRttXW5aS6nSSL0I1ccVTia1Zcow5BEbtUJgPpO0uY7q1huYq+nOiyJXY8XAYV+/MwOQ+e/+cjx&#xA;9W876HfbrS0Qc1Pxfubh22+XPMTUfUGjLzZD/wA5HeT9U1Ky0/XrCFrhNPWSK9jQFmWNiGWSg/ZU&#xA;g8voyWogTuyyx6pF/wA4xahdDWNZ07kTayW6XBWvwiRHCVA8Sr/hkdMdyGOIvoXMtvfHf5baP541&#xA;TVbqHyhdtZ3qQc7h1mMBMXNRTkOvxEbZr8YkTs4sQejL/Mv5dfnrc6RMuqXc2qWcf7ySzF56pbhv&#xA;URkjkR2HXwyyWOdbszGTMv8AnHPzVotxos/lyC0Wz1K0rdTOGLfWQxCNLv0K/CpHSlKZZp5CqZYj&#xA;0Yn+SH/k39W/4xXv/J9Mrw/WWOP6nsX5tf8Akt9f/wCYVv8AiQzIy/SW2fJgf/OOVjaX/kbW7K8i&#xA;We1uLxo54W+yyNAgIPzyrTi4lhi5MM80eWNAtfz0sdDt7GOPSJLiyR7NQfTKyIhcdf2q5XKI46YE&#xA;Dip77aeQfJ1np15pttpMEVhf8PrluoPGT0zVeW/Y5lCAqqbuEPAv8MaB/wAr+/QH1GP9D/WOH1Kh&#xA;9Pj9U50pX+bfMXhHiV0aaHFT13zymm+QPy51m48tWiafLLxVPRBFJZ2WH1Nz9pVNR7jMidRiabZe&#xA;kbPDfyxv/wAr9PNxf+ckkvr4vxtbQxNLCqUBMjitHZiSKNsPn0xcZiObTCuqYfmXq35OazphufLN&#xA;u+na1EV4RxW/oQSoWAZXVfgUgVIIHsfaWQwI25pkYnkzj8vvMd5rH5E+YoLxjJLpVlf2ccjbloha&#xA;F46n/JD8fkBlmOVwLOJuLE/yE/LrQvMsuo6nrcP1u3sWSK3tGJCNI4LMz8SCeIAoOm+QwYwdyxxx&#xA;BT38+Pyz8saV5ej1/RrRNPninSG4hhqsUiSVoeHRWVgOlNq17ZLPjAFhOSAAtH6Rf3F5/wA413LX&#xA;DF3htJ4FYmp4RTlUH+xWij5YQf3aR9DH/wAgPy88ua/aahrGtWy331eZba2tpK+mp4B3dlB+InkA&#xA;K7DI4MYO5Y44goL8/vIWg+W7zS9Q0WAWcWoeqk9shPAPFwKugJPHkH3A22wZ4AclyRAekeQ/ye8i&#xA;r5O099Q02O/vL+1inurmUsW5TIH4xkEcAtaArQ5dDFGmcYCnmnk/Rx5X/P6LRrKVjbQ3E0KVNSYZ&#xA;LdpFRvGgI+kVyiA4clNcRUkX+dV5qXmf807LyhFL6dvbvb20Kn7AluwjvKw70WRR9GHMTKVJnuae&#xA;raf+S35cWmliwfSY7olQJbqcsZ3NKFuYIKf7Cgy8YY1ybBAPF7rT7j8svzhtINNmd7GSWEqpPxPa&#xA;XLcXiemxK0NK9wDmORwT2aq4ZI7/AJyBsb+z/MGz1m9tDd6RJFAIVbkIpBCxMluzj7Jbc7djhzj1&#xA;WnJzRlzrH5Ged4LOzuID5RvYm2mihihRgQR6bSorIV6HlIFphuEvJbifJ6B5p/L7yvb/AJaXUc0Q&#xA;1OXRdIuhpl/PRpFVYnkjKlOK/CaU27ZbLGOH3BsMRTAv+cf/ACb5X1/R9Wm1nTYb6WC4jSJ5QSVU&#xA;pUgUI75VggCDbDHEF9AQwxwwpDEoSKNQkaDoFUUA+7MtuSnXvJvlfX5optZ02G+lgUpE8oJKqTUg&#xA;UI75GUAeaDEFOcklL9P8u6Dp17c3thp9vaXd3QXM0Maoz0JPxcQO5qfHAIgIACYYUvkv8nvP2j+S&#xA;9cvb/VIbiaG5tvQRbVUdg3qK9SHeMUovjmBimIndxoSovU77/nJryktpKbDTb+S8Cn0EnSGOIv25&#xA;sksjAfJcvOoDZ4oYl/zjpo+p3vnC98wMhSxghkjllA4o807KRGOxoKsR22yvTgk2xxDe0l0/W7n8&#xA;tvzc1C41C1eSATzxzIKB3tp35pJHWgJpxYePTbIg8E0A8MmXfmb+enl7WvK11omgwTzT6ggSaaZB&#xA;GkUYIZ6CpLNRaeA61yzJmBFBlPICNk4/5xk/5RPVf+Y8/wDJmPJafknFyYd+b11deXfzntPME1uX&#xA;t0NndwjoJEgCpIoP81UI+7K8u07Yz2lb2zyN+Ymg+dIbqbSEuEWzKLMLhFQ1kBIpxZ6/ZOZMMgly&#xA;bYyBeHeedTm8o/nu+u3lsz2yyxXKKvWSB4BEzJWgJHxD5jMaZ4cltMjUrep3+qaT+bH5e61a6GJU&#xA;cERw/WVWM/WIuM6DZnHFtlJ98uJE4mm2+IbPGfy817yf5du73RPPfl+OZllPG5lt1kngkFFaORW+&#xA;IptUU6Hsa7Y+OQG0g1RIHNkHmz8w/wAo7aKOLyt5VstRu3Ycpbi19OFR4BfhkZj9AycskOgSZR6B&#xA;6Bp9lcwfk3r9xdaNaaFcXunX07WFnGYgqm2YIZFYk8yBU+AoMtA9B2pmPpSH/nGH/jg63/zFR/8A&#xA;JvIabkUYuSff85Df+S3m/wCYq3/4kcnn+lOTkxny3/6zVf8A/GK6/wCog5CP92xH0I//AJxk/wCU&#xA;T1X/AJjz/wAmY8On5JxckB/zlD/vB5e/4y3P/EY8Gp6IyvW/KH/KJaJ/zAWv/JlcvhyDbHk8N/8A&#xA;Xm/+jr/sSzG/yrT/ABr/AM9/Lms6H5ytfPWmoTAzW7yTgVEV1b0VOY/ldUWnvUeFXNEg8QXIKNsq&#xA;07/nJLybJpazX9tdwagqD1bWNFkUvTf03LKOP+tTJjUCmQyh57oS6z+an5rRaw9u0Gm2ssUs9Ksk&#xA;NtbnkkXParyEfeSaUGVRuc7YD1Seg/mV+a915a80jQtW0KC+8v3Aik9WQczJC1BLRGBjZkYNQH2y&#xA;3Jlo0RszlOjTzT807z8n7yxt7jydE8WrPIDcJFHLFAIip5BklAUMGpT09uuU5TDownw9HsHlHSta&#xA;m/IkaZcRudSudJvIoInrypMJRbrv/wAVsgGZEAeCvJsiPS8o/Jr80dI8lR6nYa1b3BiunSSN4FVm&#xA;V0BVldWZPbKMWQR5tcJ0+mbS5jurWG5ir6c6LIldjxcBhX78zQ5CrirsVdirsVYl/wAql/Lf/qwW&#xA;v/At/XK/Cj3MeAOH5TflwCD/AIftdv8AJJ/jj4Ue5eAMmsdPsdPtY7Sxt47W1iFI4IUWNFHXZVAG&#xA;TAplSV+ZPJXlXzKqLrmmxXjRCkcjckkUHsJIyrge1cEoA80GIKB0z8rvIGmW1xbWeiwLFdIY5y5e&#xA;V2QmpX1JWdwD4A4BjiOiBAJvoXlvQtAt5LbR7KOyglf1JI4gQC9AtTUnsMMYgckgAL9Z0DRNbtha&#xA;6vYw30ANVSdFfielVJ3U+4wmIPNSLUdB8q+XfL6TJo1hFYrcFTMIgRyKVC1qT0qcEYgclAAX635a&#xA;0DXYUh1jT4L5I6mP10DFCevBjutadjhMQeakAu0Ly3oWgW8lto9lHZQSv6kkcQIBegWpqT2GCMQO&#xA;SgAIPzF5E8oeY2D61pcN3KBxE5Bjl4+HqxlHp7VxlAHmpiChtB/LHyHoNytzpejQxXKmqTSF53U+&#xA;KNM0hU/LBHHEcggQAZFeWlteWk9ndRiW2uY2hnibo8cilWU+xBpkyGSA0HyxoGgQyw6NYx2MU7B5&#xA;UiBAZgKAmpPbIxiByQAArazoek61ZGx1W1S8tGYOYZKleS9Dt4YTEHmpFqEHlXy7Bob6FDYRJo8g&#xA;YPZAH0yHbk3fud8HCKpaHJfoXlvQtAt5LbR7KOyglf1JI4gQC9AtTUnsMYxA5KAAs17yr5d8wJCm&#xA;s2EV8tuWMIlBPEvQNShHWgxlEHmpAKY21vBbW8VtAgjggRY4ox0VEHFQPkBkkpV/g3yv+nf0/wDo&#xA;2H9Mcuf12h9Tlx4VrX+XbI8Au+qOEXabTwQXELwXEazQyArJFIoZWU9QynYjJJYZcfkt+WM9wbh9&#xA;CjEhNaRyzxp/yLSRU/DK/Bj3MOAMr0rR9K0mzWy0y0is7VPswwoEWp6kgdSe5OTAA5MgKUdd8uaF&#xA;r1p9U1ixivoAaqsq1Kk90b7Sn3U4yiDzUgFj+mflB+W2m3a3VrocXroQyGZ5rhQR0ISZ5F/DIDFE&#xA;dECAZjljJj2q/l55I1W7e81DRbWe6kNZZzGFdz4uVpyPucgccT0YmIKfQwxwwpDEoSKNQkaDoFUU&#xA;A+7Jsl+KuxV2KuxV2KuxV2KuxV2KuxV2KuxV2KuxV2KuxVjP5keZn8ueUb3UIXCXjgQWR2P76XYM&#xA;AdvgFX+jMfVZfDgT1c7s7TeNmETy5n3JD+VHmnX72bVdC8yyM+tae6Sj1AqsYZFApRQv2TQ1p+1l&#xA;OjzSNxn9QcrtXS44iOTF9Evv/H3Iz8q9f1fWLXWn1K5a5a21GWCAsFHGNQCF+EDJaPJKQlZ6tfam&#xA;CGMw4RVxBYzY+f8AzTB5G8z6sZTeXtjqLWtrI6KVhjYovIqoWvHltXv12yiOpmMcpcyC5s9BiOfH&#xA;CqjKNnzVPJWq+drjU9MubPzHbeZLC7AbWLJjFFLahiAxCMVk+HltQAGlKdMcE8hIIkJA8/JGsxYB&#xA;GQljOOQ+k7kH9DPPPuo3um+TtVvrKUw3dvAXhlABKtUb0IIzN1EjHGSObqtDjjPNGMtwSxj/AJWD&#xA;Y/8AKtPrX6dtP8Rfo7nx9eD1/rPp1/uq/a5fs8cx/wAyPBviHFX2ud+Ql+Zrgl4fF3Gq96CvvzC1&#xA;+y8i+WhaD635l8wj0reaQLQMGCs5UAKTV1AHTv2yEtTIY41vOTZDs/HLPkvbFjUNXtfze8raa3mC&#xA;TXYdWS3Ak1DT2jHAJXfgeKmg78eJwTGfGOLi4u8M8UtHnl4YgYXyP4/amPmf8yNSn0zy/beV41Gs&#xA;eZVDQPJRlt12D1BBUkNUVoQKHbJ5dUSIiH1T+xp03Z0RKZy/Rj+1CXVj+cPloQalHqQ8yRFwL3TV&#xA;i+Kjf77ovKnuKU/lIyJjnx73x+TOM9HmuPD4fcbTDXvOV3YfmN5ctri9GnaHeWTz3sNyY4lDmOUp&#xA;6jPTiwYKKV65PJnMcsQTUSGrBoxPTZCBxTEqFb93JrVPO5uPzG8uabourQ3WmXSy/XoraSKZSyqx&#xA;Xky8ip28cZ6i8sRE7HmuLRVpskpxIkKq7C3yl5u1Sy8wea9G8xXZuP0QGvbWWQIrfVFBY14hf2GQ&#xA;/Tgw5pCU4zP07/BOr0kJY8c8Yrj2Pv8AxaWflX+Y+rajPrS+Yp2YRW/6StaqqhLdCfVC0C1AqtMh&#xA;o9VKRlx+9v7U7OhAQ8MdeE+/oifK3nXXovy81rzfrVyZS8kv6KhZVCrQ+nGo4gVBmbia12GHDnl4&#xA;Uskj7mGq0eM6mGGA7uL9P2Lfyn84+ZbvVrvRPM8zS3kttDf2DOqqfSkUMR8IWtVkU+2+OjzzMjGf&#xA;OrC9q6PFGAniG1mJ96daLr+r3H5r+YNGmuWfTLO1hktrYhaI7xwliCBy3Lnqctx5JHNKN7AfqcbN&#xA;ggNJCYHqJNn5ob81tZ8x2V75bsNDvzYTardm1kl4qw+No0UkMG2Uv2yOsnMGIiass+y8OOUckske&#xA;IQjf3pTqGvfmJ5Du7K78xX8Wt6BdSiC4kSNUkhZhWooqGtASK1BoRt1yuWTLhIMzxRLkY8Gm1QIx&#xA;xMMgF+96vmydA7FXYq7FXYq7FXYq7FXYq7FXYq7FXmX5l6D5k80+adI0axjktdMtFa5m1N4i8AnI&#xA;JUb0DFQgA/1s1+qxzyTERsB1d52bnxYMUpy3kduG96/H3JcnlTzv5c8/6Vr89xJr4vibbU7iCDgU&#xA;iIVAZFQ9BswP+TkPByQyiRPFfNtOqwZtPLGB4fDvGz1/H3taZcedPIOo61YQ+XbjW7O/uXu7G7tQ&#xA;5Wr7D1OCSU2pUGnTuN8EDkwmQ4eIE2nJHBq4wkcggYiiCj/LHlzzton5f6nNBawSa/qNy14+mzqH&#xA;QxOFVoyvIDkVBNK+3XJ4sWSGI0PUTdNWp1GDLqIgk+HEVY+9jen+XtS1bzfod7pPlS58sS2cyTat&#xA;dOHit2CspYRI4VdwGFF613FN8ojiMpxMYGFc3MyaiOPDOM8gy2PSOZ+L1P8AMKzu73yXq9raRNPc&#xA;zQFYoYwWZjUbADNjqYk4yA6Ls+YjniSaALDv+Va6N/yrTn+g1/xF+jq04N6/1n0/5a/a5Zi/lY+D&#xA;9Pqr7XY/ylP8z9f7vi+FIe/8l+ZZ/IvlS902Ex+YPLn75LKUcS1WDMpDU+IGNdj1FcjLBM44EfVF&#xA;nDWYhnyRkf3eTr+Pet13zT+YfmrSn8vWnlO502e9HpXl7c81hVKjnxZ0RaH5k06VOOTNlyR4RAi0&#xA;4NLpsE/EOUSEeQHP70X5k8ga7pOneWtQ8tUu9T8tJwktzsJ1b4pCoJHVi3w1rQ7bjJZdNKIiYbmD&#xA;Xp9fjySyRy7RyfYsvfOH5n+YvR0zRfL1z5fndlNzqV2rcEUdeJljRafIEkdBjLPmntGJj5lMNJpc&#xA;NynMZB0A/YUT5m8oXGqfmR5bF/Zyalo8Fi8N/dSIfTaRUmKmQrQAl+J+eHLhMssbFxrf7WGm1Yhp&#xA;snCeGZlsPksv/I1vpn5leWrvQtJMGnRrKb2aBG9NWKsF5tvTrjLTiOWJiNkw1pnpsgySuW1Wl/5w&#xA;+UPMVzrttqfl+2lmfULZrDUBCtaKCKF/AMrUr/k5XrcEzIGI5ii3dkavHHGYZCBwniF/j8WofmZ5&#xA;C1u1XRX8s20s7JYHSbxYFJJiVQAXp2fm1ScGr08hw8A6Uy7N10JcfikD1cQvvR3nnyjrV3pvlnyP&#xA;pMEi6dEFbUNREbGFCi8QzMKCpPNyvjTJ6jDIiOOPLqWrQ6uEZZM8z6ug6/jkEDq3k3z3oPmLRfMx&#xA;u38wzWsq28sdtbiORLajcl4p1BVmHttkJ4MkJxnfFXl0bcWswZcc8VeGDvueqNvbjzLoH5pa7rVr&#xA;5evNVs72CCGJ4FZV+GGGpDcWrQoRk5GcM0pCJIP7GqEcWXSwgZxgYknf3lvzvP5l1iLylrsPl68W&#xA;40++e5uNNClpFWGSMryIUU58NtsdQZy4JcJ2PJdFHFjOXGZxqUaB99/cp65F53/MO6s9JudEl0HQ&#xA;YJlnvZrlqyPxBFFqqdmNAB13JwZBkzkRMeGLLAcGjBmJjJkIoU//2Q==</xmpGImg:image>
               </rdf:li>
            </rdf:Alt>
         </xmp:Thumbnails>
         <xmpMM:InstanceID>xmp.iid:10a2da5a-cc02-472b-8852-744fd044e3a7</xmpMM:InstanceID>
         <xmpMM:DocumentID>xmp.did:10a2da5a-cc02-472b-8852-744fd044e3a7</xmpMM:DocumentID>
         <xmpMM:OriginalDocumentID>uuid:5D20892493BFDB11914A8590D31508C8</xmpMM:OriginalDocumentID>
         <xmpMM:RenditionClass>default</xmpMM:RenditionClass>
         <xmpMM:DerivedFrom rdf:parseType="Resource">
            <stRef:instanceID>xmp.iid:fe21e88c-d379-4563-bcc3-715bc073ba53</stRef:instanceID>
            <stRef:documentID>xmp.did:4f8f72a4-227a-4e4a-9751-fc8673937059</stRef:documentID>
            <stRef:originalDocumentID>uuid:5D20892493BFDB11914A8590D31508C8</stRef:originalDocumentID>
            <stRef:renditionClass>default</stRef:renditionClass>
         </xmpMM:DerivedFrom>
         <xmpMM:History>
            <rdf:Seq>
               <rdf:li rdf:parseType="Resource">
                  <stEvt:action>saved</stEvt:action>
                  <stEvt:instanceID>xmp.iid:66881dd5-75f3-4391-82bd-845354b40ba1</stEvt:instanceID>
                  <stEvt:when>2025-03-04T18:34:49+01:00</stEvt:when>
                  <stEvt:softwareAgent>Adobe Illustrator 29.1 (Macintosh)</stEvt:softwareAgent>
                  <stEvt:changed>/</stEvt:changed>
               </rdf:li>
               <rdf:li rdf:parseType="Resource">
                  <stEvt:action>saved</stEvt:action>
                  <stEvt:instanceID>xmp.iid:4f8f72a4-227a-4e4a-9751-fc8673937059</stEvt:instanceID>
                  <stEvt:when>2025-05-27T18:18:25+02:00</stEvt:when>
                  <stEvt:softwareAgent>Adobe Illustrator 29.4 (Macintosh)</stEvt:softwareAgent>
                  <stEvt:changed>/</stEvt:changed>
               </rdf:li>
               <rdf:li rdf:parseType="Resource">
                  <stEvt:action>converted</stEvt:action>
                  <stEvt:parameters>from application/postscript to application/vnd.adobe.illustrator</stEvt:parameters>
               </rdf:li>
               <rdf:li rdf:parseType="Resource">
                  <stEvt:action>converted</stEvt:action>
                  <stEvt:parameters>from application/postscript to application/vnd.adobe.illustrator</stEvt:parameters>
               </rdf:li>
               <rdf:li rdf:parseType="Resource">
                  <stEvt:action>converted</stEvt:action>
                  <stEvt:parameters>from application/postscript to application/vnd.adobe.illustrator</stEvt:parameters>
               </rdf:li>
               <rdf:li rdf:parseType="Resource">
                  <stEvt:action>converted</stEvt:action>
                  <stEvt:parameters>from application/postscript to application/vnd.adobe.illustrator</stEvt:parameters>
               </rdf:li>
               <rdf:li rdf:parseType="Resource">
                  <stEvt:action>saved</stEvt:action>
                  <stEvt:instanceID>xmp.iid:10a2da5a-cc02-472b-8852-744fd044e3a7</stEvt:instanceID>
                  <stEvt:when>2025-06-02T18:57:40+02:00</stEvt:when>
                  <stEvt:softwareAgent>Adobe Illustrator 29.4 (Macintosh)</stEvt:softwareAgent>
                  <stEvt:changed>/</stEvt:changed>
               </rdf:li>
            </rdf:Seq>
         </xmpMM:History>
         <illustrator:StartupProfile>Print</illustrator:StartupProfile>
         <illustrator:CreatorSubTool>Adobe Illustrator</illustrator:CreatorSubTool>
         <xmpTPg:HasVisibleOverprint>False</xmpTPg:HasVisibleOverprint>
         <xmpTPg:HasVisibleTransparency>False</xmpTPg:HasVisibleTransparency>
         <xmpTPg:NPages>1</xmpTPg:NPages>
         <xmpTPg:MaxPageSize rdf:parseType="Resource">
            <stDim:w>230.542961</stDim:w>
            <stDim:h>85.507433</stDim:h>
            <stDim:unit>Millimeters</stDim:unit>
         </xmpTPg:MaxPageSize>
         <xmpTPg:PlateNames>
            <rdf:Seq>
               <rdf:li>Cyan</rdf:li>
               <rdf:li>Magenta</rdf:li>
               <rdf:li>Yellow</rdf:li>
               <rdf:li>Black</rdf:li>
            </rdf:Seq>
         </xmpTPg:PlateNames>
         <xmpTPg:SwatchGroups>
            <rdf:Seq>
               <rdf:li rdf:parseType="Resource">
                  <xmpG:groupName>Standard-Farbfeldgruppe</xmpG:groupName>
                  <xmpG:groupType>0</xmpG:groupType>
                  <xmpG:Colorants>
                     <rdf:Seq>
                        <rdf:li rdf:parseType="Resource">
                           <xmpG:swatchName>Weiß</xmpG:swatchName>
                           <xmpG:mode>RGB</xmpG:mode>
                           <xmpG:type>PROCESS</xmpG:type>
                           <xmpG:red>255</xmpG:red>
                           <xmpG:green>255</xmpG:green>
                           <xmpG:blue>255</xmpG:blue>
                        </rdf:li>
                        <rdf:li rdf:parseType="Resource">
                           <xmpG:swatchName>Schwarz</xmpG:swatchName>
                           <xmpG:mode>RGB</xmpG:mode>
                           <xmpG:type>PROCESS</xmpG:type>
                           <xmpG:red>26</xmpG:red>
                           <xmpG:green>26</xmpG:green>
                           <xmpG:blue>25</xmpG:blue>
                        </rdf:li>
                        <rdf:li rdf:parseType="Resource">
                           <xmpG:swatchName>Schwarz</xmpG:swatchName>
                           <xmpG:type>PROCESS</xmpG:type>
                           <xmpG:tint>100.000000</xmpG:tint>
                           <xmpG:mode>RGB</xmpG:mode>
                           <xmpG:red>205</xmpG:red>
                           <xmpG:green>50</xmpG:green>
                           <xmpG:blue>0</xmpG:blue>
                        </rdf:li>
                        <rdf:li rdf:parseType="Resource">
                           <xmpG:swatchName>C=80 M=40 Y=100 K=40</xmpG:swatchName>
                           <xmpG:type>PROCESS</xmpG:type>
                           <xmpG:tint>100.000000</xmpG:tint>
                           <xmpG:mode>RGB</xmpG:mode>
                           <xmpG:red>50</xmpG:red>
                           <xmpG:green>88</xmpG:green>
                           <xmpG:blue>37</xmpG:blue>
                        </rdf:li>
                     </rdf:Seq>
                  </xmpG:Colorants>
               </rdf:li>
               <rdf:li rdf:parseType="Resource">
                  <xmpG:groupName>Graustufen</xmpG:groupName>
                  <xmpG:groupType>1</xmpG:groupType>
                  <xmpG:Colorants>
                     <rdf:Seq>
                        <rdf:li rdf:parseType="Resource">
                           <xmpG:swatchName>C=0 M=0 Y=0 K=100</xmpG:swatchName>
                           <xmpG:mode>RGB</xmpG:mode>
                           <xmpG:type>PROCESS</xmpG:type>
                           <xmpG:red>26</xmpG:red>
                           <xmpG:green>26</xmpG:green>
                           <xmpG:blue>25</xmpG:blue>
                        </rdf:li>
                     </rdf:Seq>
                  </xmpG:Colorants>
               </rdf:li>
            </rdf:Seq>
         </xmpTPg:SwatchGroups>
         <pdf:Producer>Adobe PDF library 17.00</pdf:Producer>
      </rdf:Description>
   </rdf:RDF>
</x:xmpmeta>
                                                                                                    
                                                                                                    
                                                                                                    
                                                                                                    
                                                                                                    
                                                                                                    
                                                                                                    
                                                                                                    
                                                                                                    
                                                                                                    
                                                                                                    
                                                                                                    
                                                                                                    
                                                                                                    
                                                                                                    
                                                                                                    
                                                                                                    
                                                                                                    
                                                                                                    
                                                                                                    
                           
<?xpacket end="w"?>
  </metadata>
</svg>